<?xml version="1.0" encoding="utf-8"?>
<!-- Generator: Adobe Illustrator 22.1.0, SVG Export Plug-In . SVG Version: 6.00 Build 0)  -->
<svg version="1.1"
	 id="svg118" inkscape:version="0.92.2 2405546, 2018-03-11" sodipodi:docname="mediehuset-sort.svg" xmlns:cc="http://creativecommons.org/ns#" xmlns:dc="http://purl.org/dc/elements/1.1/" xmlns:inkscape="http://www.inkscape.org/namespaces/inkscape" xmlns:rdf="http://www.w3.org/1999/02/22-rdf-syntax-ns#" xmlns:sodipodi="http://sodipodi.sourceforge.net/DTD/sodipodi-0.dtd" xmlns:svg="http://www.w3.org/2000/svg"
	 xmlns="http://www.w3.org/2000/svg" xmlns:xlink="http://www.w3.org/1999/xlink" x="0px" y="0px" viewBox="0 0 735 328.6"
	 style="enable-background:new 0 0 735 328.6;" xml:space="preserve">
<style type="text/css">
	.st0{fill:#FFFFFF;fill-opacity:0;}
	.st1{fill:#FFFFFF;}
	.st2{fill:#D83A46;}
	.st3{fill:#4D6FAC;}
	.st4{fill:#AD364C;}
	.st5{fill:#E14050;}
	.st6{fill:#CA3C51;}
	.st7{fill:#9C288B;}
	.st8{fill:#89267E;}
	.st9{fill:#7B2577;}
	.st10{fill:#6E8332;}
	.st11{fill:#4A6AA4;}
	.st12{fill:#79973A;}
	.st13{fill:#76AB3D;}
	.st14{fill:#5376B7;}
	.st15{fill:#5679C5;}
	.st16{fill:#872C99;}
	.st17{fill:#82B741;}
</style>
<sodipodi:namedview  bordercolor="#666666" borderopacity="1" gridtolerance="10" guidetolerance="10" id="namedview120" inkscape:current-layer="svg118" inkscape:cx="275.20877" inkscape:cy="305.89232" inkscape:pageopacity="0" inkscape:pageshadow="2" inkscape:window-height="1022" inkscape:window-maximized="1" inkscape:window-width="1680" inkscape:window-x="134" inkscape:window-y="0" inkscape:zoom="0.76462585" objecttolerance="10" pagecolor="#ffffff" showgrid="false">
	</sodipodi:namedview>
<rect id="rect2" x="0.4" y="0.9" class="st0" width="734.6" height="368.5"/>
<rect id="rect4" x="0.4" y="0.9" class="st0" width="734.6" height="368.5"/>
<rect id="rect6" x="0.4" y="0.9" class="st0" width="734.6" height="368.5"/>
<path id="path8" class="st1" d="M0.4,236.1h35.9L54.4,293h0.2l19-56.8h34.6v85.5H85.9l0.4-65.7H86l-21.8,65.7h-21L22.4,256h-0.2
	l0.5,65.7H0.4V236.1z"/>
<path id="path10" class="st1" d="M122.9,236.1h60.3v16.2h-37.5V270h35.4v16.2h-35.4v19.4h38.8v16.2h-61.6V236.1z"/>
<path id="path12" class="st1" d="M221.1,304.7h8.8c17,0,26.6-8.8,26.6-25.9c0-17-9.9-25.9-26.6-25.9h-8.8V304.7z M198.4,236.1h31.1
	c29.8,0,50.6,9.3,50.6,42.4c0,32-21.4,43.1-50.6,43.1h-31.1V236.1"/>
<path id="path14" class="st1" d="M293.2,236.1H316v85.5h-22.8V236.1z"/>
<path id="path16" class="st1" d="M332.4,236.1h60.3v16.2h-37.5V270h35.4v16.2h-35.4v19.4H394v16.2h-61.6V236.1"/>
<path id="path18" class="st1" d="M409.2,236.3h8.4v37.8h43.2v-37.8h8.4v85.4h-8.4v-40.2h-43.2v40.2h-8.4V236.3z"/>
<path id="path20" class="st1" d="M549.1,291.8c0,25.2-18.5,31.3-31,31.3c-12.5,0-31-6.1-31-31.3v-55.5h8.4v55.5
	c0,13.9,7.7,24,22.5,24c14.8,0,22.5-10,22.5-24v-55.5h8.4V291.8z"/>
<path id="path22" class="st1" d="M563.7,310.8c5,3.2,10.9,5,18.8,5c10.5,0,19.2-5.4,19.2-17.5c0-16.8-39.1-18.8-39.1-41.2
	c0-13.7,12-22.3,27-22.3c4.2,0,10.9,0.6,16.8,2.8l-1.3,7.7c-3.8-2.1-9.8-3.2-15.5-3.2c-8.8,0-18.5,3.7-18.5,14.7
	c0,17.1,39.1,17.2,39.1,42.2c0,17.2-14.8,24.1-28,24.1c-8.3,0-14.8-1.7-19.3-3.7L563.7,310.8"/>
<path id="path24" class="st1" d="M624.2,236.3h41.8v7.3h-33.4v30.5h31.7v7.3h-31.7v32.9h34.9v7.3h-43.3V236.3"/>
<path id="path26" class="st1" d="M701.3,243.6h-25.2v-7.3h58.8v7.3h-25.2v78h-8.4V243.6z"/>
<path id="path36" class="st2" d="M294,201.8h-61.6c-2.2,0-4-1.8-4-4v-41.2H298v41.2C298,200.1,296.3,201.8,294,201.8z"/>
<path id="path38" class="st3" d="M502.9,201.8h-61.6c-2.2,0-4-1.8-4-4v-41.2h69.6v41.2C506.9,200.1,505.1,201.8,502.9,201.8z"/>
<path id="path40" class="st4" d="M298,81.3l-69.6-40.2v80.4L298,81.3z"/>
<path id="path66" class="st5" d="M229.9,201l68.1-39.3l-69.6-40.2v76.4C228.4,197.8,228.4,199.8,229.9,201"/>
<path id="path68" class="st6" d="M228.4,121.5l69.6,40.2V81.3L228.4,121.5z"/>
<path id="path70" class="st7" d="M228.4,41.1L298,81.3V0.9L228.4,41.1z"/>
<path id="path72" class="st8" d="M298,81.3l69.6-40.2L298,0.9V81.3z"/>
<path id="path74" class="st9" d="M367.7,41.1L298,81.3l69.6,40.2V41.1z"/>
<path id="path76" class="st10" d="M437.3,81.3l-69.6-40.2v80.4L437.3,81.3z"/>
<path id="path78" class="st11" d="M437.3,81.3l69.6,40.2V41.1L437.3,81.3z"/>
<rect id="rect80" x="437.4" y="40.7" class="st0" width="69.5" height="84"/>
<rect id="rect82" x="437.4" y="40.7" class="st0" width="69.5" height="84"/>
<rect id="rect84" x="437.4" y="40.7" class="st0" width="69.5" height="84"/>
<path id="path88" class="st12" d="M367.7,41.1l69.6,40.2V0.9L367.7,41.1z"/>
<path id="path90" class="st13" d="M506.9,41.1L437.3,0.9v80.4L506.9,41.1z"/>
<path id="path92" class="st14" d="M506.9,121.5l-69.6-40.2v80.4L506.9,121.5z"/>
<path id="path94" class="st15" d="M505.4,201l-68.1-39.3l69.6-40.2v76.4C506.9,197.9,506.9,199.7,505.4,201"/>
<path id="path96" class="st16" d="M234.1,0.9h64l-69.6,40.2V6.6C228.4,3.4,231,0.9,234.1,0.9"/>
<path id="path98" class="st17" d="M437.3,0.9h64c3.1,0,5.7,2.5,5.7,5.7v34.5L437.3,0.9z"/>
</svg>
