<?xml version="1.0" encoding="UTF-8" standalone="no"?>
<svg
   xmlns:dc="http://purl.org/dc/elements/1.1/"
   xmlns:cc="http://creativecommons.org/ns#"
   xmlns:rdf="http://www.w3.org/1999/02/22-rdf-syntax-ns#"
   xmlns:svg="http://www.w3.org/2000/svg"
   xmlns="http://www.w3.org/2000/svg"
   id="svg913"
   version="1.1"
   viewBox="0 0 73.674614 53.170029"
   height="53.170029mm"
   width="73.674614mm">
  <defs
     id="defs907" />
  <metadata
     id="metadata910">
    <rdf:RDF>
      <cc:Work
         rdf:about="">
        <dc:format>image/svg+xml</dc:format>
        <dc:type
           rdf:resource="http://purl.org/dc/dcmitype/StillImage" />
        <dc:title></dc:title>
      </cc:Work>
    </rdf:RDF>
  </metadata>
  <g
     transform="translate(-37.246026,-101.8376)"
     id="layer1">
    <path
       id="path36"
       d="M 54.606426,155.00763 H 38.304389 c -0.584465,0 -1.058334,-0.47387 -1.058334,-1.05833 V 143.05164 H 55.66476 v 10.89766 c 0,0.58446 -0.473869,1.05833 -1.058334,1.05833 z"
       style="fill:#d83a46;stroke-width:0.26458332" />
    <path
       id="path38"
       d="M 109.86227,155.00763 H 93.560501 c -0.584994,0 -1.058333,-0.47387 -1.058333,-1.05833 v -10.89766 h 18.418442 v 10.89766 c 0,0.58446 -0.47387,1.05833 -1.05834,1.05833 z"
       style="fill:#4d6fac;stroke-width:0.26458332" />
    <path
       id="path40"
       d="M 55.66476,123.10553 37.246055,112.47174 v 21.26789 z"
       style="fill:#ad364c;stroke-width:0.26458332" />
    <rect
       id="rect42"
       transform="scale(1,-1)"
       height="1.100664"
       width="1.0456661"
       style="fill:#000000;fill-opacity:0;stroke-width:0.03527769"
       x="37.246056"
       y="-134.54158" />
    <rect
       id="rect44"
       transform="scale(1,-1)"
       height="1.100664"
       width="1.0456661"
       style="fill:#000000;fill-opacity:0;stroke-width:0.03527769"
       x="37.246056"
       y="-134.54158" />
    <rect
       id="rect46"
       transform="scale(1,-1)"
       height="1.1006666"
       width="1.0456684"
       style="fill:#000000;fill-opacity:0;stroke-width:1.26481497"
       x="37.246056"
       y="-134.54158" />
    <rect
       id="rect50"
       transform="scale(1,-1)"
       height="11.683971"
       width="18.418518"
       style="fill:#000000;fill-opacity:0;stroke-width:0.03527769"
       x="37.246056"
       y="-134.54158" />
    <rect
       id="rect52"
       transform="scale(1,-1)"
       height="11.683971"
       width="18.418518"
       style="fill:#000000;fill-opacity:0;stroke-width:0.03527769"
       x="37.246056"
       y="-134.54158" />
    <rect
       id="rect54"
       transform="scale(1,-1)"
       height="11.684"
       width="18.418564"
       style="fill:#000000;fill-opacity:0;stroke-width:14.93568993"
       x="37.246056"
       y="-134.54158" />
    <rect
       id="rect58"
       transform="scale(1,-1)"
       height="22.267279"
       width="18.418518"
       style="fill:#000000;fill-opacity:0;stroke-width:0.03527769"
       x="37.246056"
       y="-134.18863" />
    <rect
       id="rect60"
       transform="scale(1,-1)"
       height="22.267279"
       width="18.418518"
       style="fill:#000000;fill-opacity:0;stroke-width:0.03527769"
       x="37.246056"
       y="-134.18863" />
    <rect
       id="rect62"
       transform="scale(1,-1)"
       height="22.267334"
       width="18.418564"
       style="fill:#000000;fill-opacity:0;stroke-width:20.61880875"
       x="37.246056"
       y="-134.18863" />
    <path
       id="path66"
       d="M 37.645576,154.77692 55.66476,144.37376 37.246055,133.73963 v 20.20967 c 0,0 -0.01111,0.51435 0.399521,0.82762"
       style="fill:#e14050;stroke-width:0.26458332" />
    <path
       id="path68"
       d="M 37.246055,133.73963 55.66476,144.37376 V 123.10553 Z"
       style="fill:#ca3c51;stroke-width:0.26458332" />
    <path
       id="path70"
       d="M 37.246055,112.47174 55.66476,123.10553 V 101.83761 Z"
       style="fill:#9c288b;stroke-width:0.26458332" />
    <path
       id="path72"
       d="M 55.66476,123.10553 74.083463,112.47174 55.66476,101.83761 Z"
       style="fill:#89267e;stroke-width:0.26458332" />
    <path
       id="path74"
       d="m 74.083463,112.47174 -18.418703,10.63379 18.418703,10.6341 z"
       style="fill:#7b2577;stroke-width:0.26458332" />
    <path
       id="path76"
       d="M 92.502168,123.10553 74.083463,112.47174 v 21.26789 z"
       style="fill:#6e8332;stroke-width:0.26458332" />
    <path
       id="path78"
       d="m 92.502168,123.10553 18.418442,10.6341 v -21.26789 z"
       style="fill:#4a6aa4;stroke-width:0.26458332" />
    <rect
       id="rect80"
       transform="scale(1,-1)"
       height="22.224943"
       width="18.392729"
       style="fill:#000000;fill-opacity:0;stroke-width:0.03527769"
       x="92.527832"
       y="-134.58736" />
    <rect
       id="rect82"
       transform="scale(1,-1)"
       height="22.224943"
       width="18.392729"
       style="fill:#000000;fill-opacity:0;stroke-width:0.03527769"
       x="92.527832"
       y="-134.58736" />
    <rect
       id="rect84"
       transform="scale(1,-1)"
       height="22.225004"
       width="18.392771"
       style="fill:#000000;fill-opacity:0;stroke-width:20.61880875"
       x="92.527832"
       y="-134.58736" />
    <path
       id="path88"
       d="m 74.083463,112.47174 18.418705,10.63379 v -21.26792 z"
       style="fill:#79973a;stroke-width:0.26458332" />
    <path
       id="path90"
       d="M 110.92061,112.47174 92.502168,101.83761 v 21.26792 z"
       style="fill:#76ab3d;stroke-width:0.26458332" />
    <path
       id="path92"
       d="m 110.92061,133.73963 -18.418442,-10.6341 v 21.26823 z"
       style="fill:#5376b7;stroke-width:0.26458332" />
    <path
       id="path94"
       d="M 110.52162,154.77718 92.502168,144.37376 110.92061,133.73963 v 20.22449 c 0,0 0.0116,0.48498 -0.39899,0.81306"
       style="fill:#5679c5;stroke-width:0.26458332" />
    <path
       id="path96"
       d="M 38.743597,101.8376 H 55.66476 l -18.418705,10.63414 v -9.1366 c 0,-0.82691 0.670719,-1.49754 1.497542,-1.49754"
       style="fill:#872c99;stroke-width:0.26458332" />
    <path
       id="path98"
       d="m 92.502168,101.8376 h 16.920902 c 0.82682,0 1.49754,0.67063 1.49754,1.49754 v 9.1366 z"
       style="fill:#82b741;stroke-width:0.26458332" />
  </g>
</svg>
