<svg fill="none" version="1.1" viewBox="0 0 1432.8 209.7" xmlns="http://www.w3.org/2000/svg" xmlns:xlink="http://www.w3.org/1999/xlink">
    <g transform="matrix(1.0435 0 0 1.0435 -18.787 -28.663)" fill="#171717">
        <path d="m347.38 141.5h35.897l18.133 56.848h.2448l18.991-56.848h34.55v85.517h-22.299l.3682-65.669h-.2458l-21.808 65.669h-20.95l-20.828-65.669h-.2446l.4894 65.669h-22.298z"/>
        <path d="m469.9 141.5h60.279v16.172h-37.491v17.643h35.408v16.173h-35.408v19.357h38.839v16.172h-61.627z"/>
        <path d="m568.16 210.11h8.822c17.03 0 26.586-8.821 26.586-25.85 0-17.031-9.924-25.852-26.586-25.852h-8.822zm-22.788-68.609h31.119c29.772 0 50.601 9.312 50.601 42.391 0 31.977-21.441 43.126-50.601 43.126h-31.119v-85.517"/>
        <path d="m640.2 141.5h22.788v85.517h-22.788z"/>
        <path d="m679.4 141.5h60.278v16.172h-37.49v17.643h35.408v16.173h-35.408v19.357h38.838v16.172h-61.626v-85.517"/>
        <path d="m756.2 141.57h8.441v37.801h43.184v-37.801h8.441v85.389h-8.441v-40.248h-43.184v40.248h-8.441z"/>
        <path d="m896.15 196.37c0 25.202-18.471 31.319-30.951 31.319-12.477 0-30.95-6.117-30.95-31.319v-55.539h8.441v55.539c0 13.947 7.708 23.978 22.509 23.978 14.804 0 22.511-10.031 22.511-23.978v-55.539h8.44z"/>
        <path d="m910.7 216.07c5.016 3.181 10.888 5.016 18.84 5.016 10.522 0 19.206-5.382 19.206-17.493 0-16.761-39.147-18.84-39.147-41.226 0-13.703 11.989-22.266 27.036-22.266 4.159 0 10.888.612 16.76 2.814l-1.345 7.706c-3.794-2.078-9.787-3.181-15.536-3.181-8.81 0-18.474 3.67-18.474 14.681 0 17.127 39.147 17.249 39.147 42.207 0 17.248-14.801 24.099-28.013 24.099-8.32 0-14.804-1.712-19.33-3.67l.856-8.687"/>
        <path d="m971.25 141.57h41.839v7.34h-33.398v30.461h31.686v7.34h-31.686v32.908h34.866v7.34h-43.307v-85.389"/>
        <path d="m1048.3 148.91h-25.2v-7.34h58.841v7.34h-25.2v78.049h-8.441z"/>
    </g>
    <g transform="matrix(1.0435 0 0 1.0435 -34.118 1.7245)" fill="#171717">
        <path d="m1389.4 198.58h16.297v-2.804h-13.437v-11.253h10.888v-2.804h-10.888v-8.976h13.552v-2.804h-16.412zm-50.911 0h16.298v-2.804h-13.435v-11.253h10.376v-2.804h-10.376v-8.976h13.552v-2.804h-16.415zm-16.842 0h13.882v-2.765h-11.021v-25.876h-2.861zm-16.826 0h13.883v-2.765h-11.02v-25.876h-2.863zm-11.976-24.921c1.923 1.104 3.415 2.576 4.475 4.415 1.06 1.837 1.591 3.893 1.591 6.166 0 2.286-.531 4.364-1.591 6.235-1.06 1.872-2.535 3.346-4.427 4.424-1.892 1.077-3.949 1.617-6.172 1.617-3.328 0-6.173-1.171-8.532-3.517-2.36-2.345-3.54-5.219-3.54-8.623 0-2.298.534-4.384 1.6-6.254 1.066-1.872 2.548-3.359 4.447-4.463 1.897-1.104 3.905-1.656 6.025-1.656 2.159 0 4.2.552 6.124 1.656zm-13.713-2.445c-2.299 1.331-4.113 3.171-5.444 5.52-1.332 2.349-1.997 4.901-1.997 7.652 0 4.128 1.46 7.645 4.384 10.553 2.921 2.908 6.506 4.363 10.753 4.363 4.196 0 7.752-1.462 10.667-4.383 2.917-2.92 4.376-6.476 4.376-10.671 0-4.229-1.463-7.793-4.386-10.688-2.922-2.894-6.553-4.342-10.89-4.342-2.675 0-5.164.665-7.463 1.996zm-13.229-.41c-2.154-1.057-4.57-1.586-7.243-1.586-4.427 0-8.109 1.43-11.049 4.294-2.94 2.862-4.41 6.39-4.41 10.581 0 3.986 1.214 7.386 3.642 10.204 2.893 3.337 6.845 5.005 11.857 5.005 2.633 0 5.019-.499 7.155-1.492 2.134-.992 3.916-2.396 5.345-4.215l-2.26-1.713c-2.699 3.142-6.055 4.712-10.067 4.712-3.646 0-6.668-1.168-9.062-3.506-2.395-2.336-3.592-5.249-3.592-8.741 0-2.311.536-4.39 1.606-6.24 1.071-1.85 2.579-3.322 4.527-4.42 1.947-1.097 4.063-1.645 6.348-1.645 2.089 0 4.007.418 5.753 1.256 1.746.837 3.242 2.066 4.487 3.689l2.26-1.733c-1.376-1.908-3.141-3.391-5.297-4.45"/>
        <path d="m1211.1 198.58h9.573v-10.267h8.753v10.267h9.574v-28.637h-9.574v10.105h-8.753v-10.105h-9.573zm-10.37 0c1.404-.409 2.659-.962 3.763-1.655 1.105-.698 2.067-1.516 2.885-2.457.818-.94 1.527-1.942 2.127-3.006l-7.896-4.459c-.599 1.063-1.309 1.928-2.127 2.597-.818.668-1.909 1.002-3.272 1.002-.792 0-1.514-.156-2.168-.47-.656-.313-1.221-.75-1.698-1.311-.478-.557-.846-1.225-1.104-2.002-.26-.779-.39-1.629-.39-2.556v-.083c0-.845.13-1.649.39-2.414.258-.763.62-1.431 1.084-2.003.462-.573 1.022-1.024 1.677-1.35.655-.327 1.391-.491 2.209-.491 1.308 0 2.364.32 3.17.96.805.641 1.48 1.481 2.025 2.515l7.895-4.622c-.6-1.089-1.315-2.092-2.147-3.007-.832-.913-1.787-1.697-2.864-2.352-1.077-.653-2.277-1.165-3.6-1.534-1.323-.367-2.776-.552-4.356-.552-2.128 0-4.119.376-5.973 1.125-1.855.751-3.471 1.795-4.848 3.131-1.378 1.336-2.454 2.917-3.231 4.744-.779 1.828-1.167 3.805-1.167 5.933v.08c0 2.209.403 4.228 1.208 6.054.804 1.828 1.887 3.397 3.251 4.705 1.364 1.311 2.939 2.318 4.725 3.028 1.787.709 3.675 1.064 5.666 1.064 1.773 0 3.361-.206 4.766-.614zm-44.838 0h24.626v-7.854h-15.218v-3.11h12.829v-6.913h-12.829v-2.906h15.013v-7.854h-24.421zm-20.07 0h9.572v-20.537h8.427v-8.1h-26.425v8.1h8.426z"/>
        <path d="m1379.7 171.45c-4.944-3.027-11.416-3.034-16.468.504-6.796 4.76-8.448 14.127-3.689 20.924 4.758 6.796 14.126 8.448 20.922 3.69 5.024-3.518 7.232-9.552 6.126-15.203l-2.595.506c.915 4.662-.901 9.635-5.043 12.535-5.602 3.924-13.326 2.562-17.249-3.041s-2.563-13.327 3.04-17.251c4.167-2.915 9.5-2.906 13.575-.412l1.381-2.252"/>
        <path d="m1371.8 187.15 1.54 2.199 11.386-7.974-1.54-2.198-11.386 7.973"/>
    </g>
    <g transform="matrix(1.0435 0 0 1.0435 0 -181.51)">
        <path d="m65.614 374.9h-61.614c-2.209 0-4-1.791-4-4v-41.188h69.614v41.188c0 2.209-1.791 4-4 4z" fill="#d83a46"/>
        <path d="m274.46 374.9h-61.613c-2.211 0-4-1.791-4-4v-41.188h69.613v41.188c0 2.209-1.791 4-4 4z" fill="#4d6fac"/>
        <path d="m69.614 254.32-69.614-40.191v80.383z" fill="#ad364c"/>
        <rect transform="scale(1,-1)" x=".00010282" y="-297.55" width="3.9521" height="4.16" fill-opacity="0" stroke-width=".13333"/>
        <rect transform="scale(1,-1)" x=".00010282" y="-297.55" width="3.9521" height="4.16" fill-opacity="0" stroke-width=".13333"/>
        <rect transform="scale(1,-1)" x=".00010282" y="-297.55" width="3.9521" height="4.16" fill-opacity="0" stroke-width="4.7804"/>
        <rect transform="scale(1,-1)" x=".00010282" y="-297.55" width="69.613" height="44.16" fill-opacity="0" stroke-width=".13333"/>
        <rect transform="scale(1,-1)" x=".00010282" y="-297.55" width="69.613" height="44.16" fill-opacity="0" stroke-width=".13333"/>
        <rect transform="scale(1,-1)" x=".00010282" y="-297.55" width="69.613" height="44.16" fill-opacity="0" stroke-width="56.45"/>
        <rect transform="scale(1,-1)" x=".00010282" y="-296.21" width="69.613" height="84.16" fill-opacity="0" stroke-width=".13333"/>
        <rect transform="scale(1,-1)" x=".00010282" y="-296.21" width="69.613" height="84.16" fill-opacity="0" stroke-width=".13333"/>
        <rect transform="scale(1,-1)" x=".00010282" y="-296.21" width="69.613" height="84.16" fill-opacity="0" stroke-width="77.929"/>
        <path d="m1.5101 374.03 68.104-39.319-69.614-40.192v76.383s-.042 1.944 1.51 3.128" fill="#e14050"/>
        <path d="m.00011072 294.52 69.614 40.192v-80.384z" fill="#ca3c51"/>
        <path d="m.00011072 214.13 69.614 40.191v-80.383z" fill="#9c288b"/>
        <path d="m69.614 254.32 69.614-40.191-69.614-40.192z" fill="#89267e"/>
        <path d="m139.23 214.13-69.614 40.191 69.614 40.192z" fill="#7b2577"/>
        <path d="m208.84 254.32-69.614-40.191v80.383z" fill="#6e8332"/>
        <path d="m208.84 254.32 69.613 40.192v-80.383z" fill="#4a6aa4"/>
        <rect transform="scale(1,-1)" x="208.94" y="-297.72" width="69.516" height="84" fill-opacity="0" stroke-width=".13333"/>
        <rect transform="scale(1,-1)" x="208.94" y="-297.72" width="69.516" height="84" fill-opacity="0" stroke-width=".13333"/>
        <rect transform="scale(1,-1)" x="208.94" y="-297.72" width="69.516" height="84" fill-opacity="0" stroke-width="77.929"/>
        <path d="m139.23 214.13 69.614 40.191v-80.383z" fill="#79973a"/>
        <path d="m278.46 214.13-69.613-40.192v80.383z" fill="#76ab3d"/>
        <path d="m278.46 294.52-69.613-40.192v80.384z" fill="#5376b7"/>
        <path d="m276.95 374.03-68.105-39.32 69.613-40.192v76.439s.044 1.833-1.508 3.073" fill="#5679c5"/>
        <path d="m5.6601 173.94h63.954l-69.614 40.192v-34.532c0-3.1253 2.535-5.66 5.66-5.66" fill="#872c99"/>
        <path d="m208.84 173.94h63.953c3.125 0 5.66 2.5347 5.66 5.66v34.532z" fill="#82b741"/>
    </g>
</svg>
