<?xml version="1.0" encoding="utf-8"?>
<!-- Generator: Adobe Illustrator 22.1.0, SVG Export Plug-In . SVG Version: 6.00 Build 0)  -->
<svg version="1.1" xmlns="http://www.w3.org/2000/svg" xmlns:xlink="http://www.w3.org/1999/xlink" x="0px" y="0px"
	 viewBox="0 0 546.2 28.2" style="enable-background:new 0 0 546.2 28.2;" xml:space="preserve">
<style type="text/css">
	.st0{display:none;}
	.st1{display:inline;}
	.st2{fill:none;stroke:#A09F9F;stroke-width:2;stroke-miterlimit:10;}
	.st3{fill:none;stroke:#A09F9F;stroke-miterlimit:10;}
	.st4{fill:none;stroke:#000000;stroke-width:2;stroke-miterlimit:10;}
	.st5{fill:none;stroke:#000000;stroke-miterlimit:10;}
	.st6{fill:none;stroke:#4DD6E8;stroke-miterlimit:10;}
	.st7{fill:#878787;}
	.st8{fill:#FFC015;}
	.st9{fill:#9916B1;}
	.st10{fill:#84B12A;}
	.st11{fill:#D83A46;}
	.st12{font-family:'FrutigerLTStd-Light';}
	.st13{font-size:9px;}
	.st14{fill:#009BB9;}
	.st15{fill:#585968;}
	.st16{fill:#FFFFFF;stroke:#000000;stroke-width:2;stroke-miterlimit:10;}
</style>
<g id="Layer_1" class="st0">
	<g id="FØRSTESAL" class="st1">
		<g id="FØRSTESAL-KORT">
			<rect x="51.5" y="74.9" class="st2" width="34.7" height="28.1"/>
			<line class="st3" x1="68.9" y1="74.6" x2="69" y2="103.1"/>
			<rect x="391.7" y="74.9" class="st2" width="51.5" height="28"/>
			<line class="st3" x1="409.1" y1="75.4" x2="409.2" y2="103.1"/>
			<rect x="1.2" y="123.4" class="st4" width="135.4" height="49.8"/>
			<rect x="478.5" y="12.1" class="st4" width="66.7" height="109.3"/>
			<rect x="407.7" y="11.6" class="st4" width="52.1" height="63.3"/>
			<rect x="291" y="11.6" class="st4" width="117.2" height="63.3"/>
			<rect x="239.5" y="11.6" class="st4" width="51.2" height="84"/>
			<rect x="187" y="11.6" class="st4" width="52.3" height="83.8"/>
			<rect x="136.5" y="123.4" class="st4" width="85" height="49.8"/>
			<rect x="137.6" y="11.6" class="st4" width="49.4" height="63.3"/>
			<rect x="102" y="11.5" class="st4" width="35.7" height="63.4"/>
			<rect x="51.7" y="11.5" class="st4" width="50.3" height="63.4"/>
			<rect x="1" y="11.6" class="st4" width="50.7" height="83.3"/>
			<line class="st5" x1="478.5" y1="48.9" x2="486.7" y2="48.9"/>
			<line class="st5" x1="478.5" y1="46.9" x2="486.9" y2="46.9"/>
			<line class="st5" x1="478.2" y1="44.9" x2="486.9" y2="44.9"/>
			<line class="st5" x1="478.1" y1="42.9" x2="487" y2="42.9"/>
			<line class="st5" x1="478.5" y1="41" x2="486.9" y2="41"/>
			<line class="st5" x1="478.2" y1="39" x2="487" y2="39"/>
			<line class="st5" x1="478.5" y1="37" x2="486.6" y2="37"/>
			<line class="st5" x1="478.5" y1="35" x2="486.6" y2="35"/>
			<line class="st5" x1="478.2" y1="33" x2="486.6" y2="33"/>
			<line class="st5" x1="484.7" y1="11.9" x2="484.7" y2="22.2"/>
			<rect x="486.9" y="22.6" class="st6" width="22.7" height="27.7"/>
			<rect x="485.1" y="20.7" class="st6" width="26.7" height="31.4"/>
			<rect x="221.6" y="123.3" class="st4" width="34" height="49.8"/>
			<rect x="255.6" y="144" class="st4" width="34.1" height="29.1"/>
			<rect x="289.7" y="144" class="st4" width="26.6" height="29.1"/>
			<rect x="316.8" y="144" class="st4" width="24.1" height="29.1"/>
			<rect x="341.2" y="123.7" class="st4" width="35.3" height="49.3"/>
			<rect x="376.4" y="123.7" class="st4" width="65.2" height="49.3"/>
			<rect x="478.5" y="121.4" class="st4" width="66.7" height="51.6"/>
			<g>
				<path class="st7" d="M135,42.6c0,8.1-6.5,14.6-14.6,14.6s-14.6-6.5-14.6-14.6S112.3,28,120.4,28C128.5,28,135,34.5,135,42.6z"/>
				<text transform="matrix(1 0 0 1 109.0555 45.2405)" class="st12 st13" style="fill:#FFFFFF;">N</text>
				<text transform="matrix(1 0 0 1 116.7555 45.2405)" class="st12 st13" style="fill:#FFFFFF;">223</text>
				<text transform="matrix(1 0 0 1 111.2555 50.0405)" class="st12" style="fill:#FFFFFF; font-size:4px;">TECH</text>
				<text transform="matrix(1 0 0 1 122.8555 50.0405)" class="st12" style="fill:#FFFFFF; font-size:4px;">LAB</text>
			</g>
			<g>
				<circle class="st8" cx="513.8" cy="82.8" r="25"/>
				<text transform="matrix(1 0 0 1 502.4608 80.017)" class="st12 st13" style="fill:#FFFFFF;">N</text>
				<text transform="matrix(1 0 0 1 510.1608 80.017)" class="st12 st13" style="fill:#FFFFFF;">209</text>
				<text transform="matrix(1 0 0 1 495.4608 87.217)" class="st12" style="fill:#FFFFFF; font-size:6px;">PYRA</text>
				<text transform="matrix(1 0 0 1 514.4608 87.217)" class="st12" style="fill:#FFFFFF; font-size:6px;">MIDEN</text>
			</g>
			<g>
				<path class="st7" d="M451.7,42.9c0,9.9-8.1,18-18,18s-18-8.1-18-18s8.1-18,18-18C443.7,24.9,451.7,33,451.7,42.9z"/>
				<text transform="matrix(1 0 0 1 422.3576 45.5987)" class="st12 st13" style="fill:#FFFFFF;">N</text>
				<text transform="matrix(1 0 0 1 430.0576 45.5987)" class="st12 st13" style="fill:#FFFFFF;">214</text>
				<text transform="matrix(1 0 0 1 419.4576 49.1987)" class="st12" style="fill:#FFFFFF; font-size:3px;">EFTER</text>
				<text transform="matrix(1 0 0 1 430.1576 49.1987)" class="st12" style="fill:#FFFFFF; font-size:3px;">UDDANNELSE</text>
			</g>
			<g>
				<path class="st9" d="M392.8,43.7c0,9.9-8.1,18-18,18s-18-8.1-18-18s8.1-18,18-18S392.8,33.8,392.8,43.7z"/>
				<text transform="matrix(1 0 0 1 361.1277 46.3484)" class="st12 st13" style="fill:#FFFFFF;">N</text>
				<text transform="matrix(1 0 0 1 368.8277 46.3484)" class="st12 st13" style="fill:#FFFFFF;">215a</text>
			</g>
			<g>
				<path class="st9" d="M334.8,43.2c0,9.9-8.1,18-18,18s-18-8.1-18-18s8.1-18,18-18S334.8,33.3,334.8,43.2z"/>
				<text transform="matrix(1 0 0 1 305.4 45.8685)" class="st12 st13" style="fill:#FFFFFF;">N</text>
				<text transform="matrix(1 0 0 1 313.1 45.8685)" class="st12 st13" style="fill:#FFFFFF;">215</text>
			</g>
			<g>
				<path class="st9" d="M283.1,55.3c0,9.9-8.1,18-18,18s-18-8.1-18-18s8.1-18,18-18C275,37.3,283.1,45.4,283.1,55.3z"/>
				<text transform="matrix(1 0 0 1 253.701 57.9871)" class="st12 st13" style="fill:#FFFFFF;">N</text>
				<text transform="matrix(1 0 0 1 261.401 57.9871)" class="st12 st13" style="fill:#FFFFFF;">218</text>
			</g>
			<g>
				<path class="st7" d="M231.3,57.2c0,9.9-8.1,18-18,18s-18-8.1-18-18s8.1-18,18-18C223.2,39.2,231.3,47.2,231.3,57.2z"/>
				<text transform="matrix(1 0 0 1 201.8871 59.8177)" class="st12 st13" style="fill:#FFFFFF;">N</text>
				<text transform="matrix(1 0 0 1 209.5871 59.8177)" class="st12 st13" style="fill:#FFFFFF;">219</text>
				<text transform="matrix(1 0 0 1 201.4871 64.6178)" class="st12" style="fill:#FFFFFF; font-size:4px;">DESIGN</text>
				<text transform="matrix(1 0 0 1 218.2871 64.6178)" class="st12" style="fill:#FFFFFF; font-size:4px;">LAB</text>
			</g>
			<g>
				<path class="st7" d="M180,41.8c0,9.9-8.1,18-18,18s-18-8.1-18-18s8.1-18,18-18S180,31.8,180,41.8z"/>
				<text transform="matrix(1 0 0 1 150.5761 44.4124)" class="st12 st13" style="fill:#FFFFFF;">N</text>
				<text transform="matrix(1 0 0 1 158.2761 44.4124)" class="st12 st13" style="fill:#FFFFFF;">221</text>
				<text transform="matrix(1 0 0 1 147.7761 50.4124)" class="st12" style="fill:#FFFFFF; font-size:5px;">PHOTO</text>
				<text transform="matrix(1 0 0 1 167.7761 50.4124)" class="st12" style="fill:#FFFFFF; font-size:5px;">LAB</text>
			</g>
			<g>
				<path class="st10" d="M95.3,41.8c0,9.9-8.1,18-18,18s-18-8.1-18-18s8.1-18,18-18S95.3,31.8,95.3,41.8z"/>
				<text transform="matrix(1 0 0 1 65.9083 44.4124)" class="st12 st13" style="fill:#FFFFFF;">N</text>
				<text transform="matrix(1 0 0 1 73.6083 44.4124)" class="st12 st13" style="fill:#FFFFFF;">225</text>
			</g>
			<g>
				<path class="st11" d="M43.2,57.2c0,9.9-8.1,18-18,18s-18-8.1-18-18s8.1-18,18-18S43.2,47.2,43.2,57.2z"/>
				<text transform="matrix(1 0 0 1 13.8265 59.8177)" class="st12 st13" style="fill:#FFFFFF;">N</text>
				<text transform="matrix(1 0 0 1 21.5265 59.8177)" class="st12 st13" style="fill:#FFFFFF;">226</text>
			</g>
			<g>
				<path class="st11" d="M82.8,149.4c0,9.9-8.1,18-18,18s-18-8.1-18-18s8.1-18,18-18S82.8,139.4,82.8,149.4z"/>
				<text transform="matrix(1 0 0 1 53.3789 152.0179)" class="st12 st13" style="fill:#FFFFFF;">N</text>
				<text transform="matrix(1 0 0 1 61.0789 152.0179)" class="st12 st13" style="fill:#FFFFFF;">228</text>
			</g>
			<g>
				<path class="st7" d="M198,148.1c0,9.9-8.1,18-18,18s-18-8.1-18-18s8.1-18,18-18S198,138.2,198,148.1z"/>
				<text transform="matrix(1 0 0 1 168.576 150.7784)" class="st12 st13" style="fill:#FFFFFF;">N</text>
				<text transform="matrix(1 0 0 1 176.276 150.7784)" class="st12 st13" style="fill:#FFFFFF;">230</text>
				<text transform="matrix(1 0 0 1 164.876 155.5785)" class="st12" style="fill:#FFFFFF; font-size:4px;">UNDER</text>
				<text transform="matrix(1 0 0 1 180.576 155.5785)" class="st12" style="fill:#FFFFFF; font-size:4px;">VISNING</text>
			</g>
			<line class="st5" x1="341.8" y1="11.5" x2="341.8" y2="75.9"/>
			<polyline class="st5" points="399.9,123.7 399.9,151 409.3,151.1 409.1,172.5 			"/>
		</g>
		<text transform="matrix(1 0 0 1 1.254 1.7235)" class="st12 st13">N-GANGEN </text>
		<text transform="matrix(1 0 0 1 58.554 1.7235)" class="st12 st13">FØRSTESAL</text>
	</g>
</g>
<g id="Layer_3">
	<g id="OVERSIGT">
		<text transform="matrix(1 0 0 1 72.3851 18.108)" class="st12 st13">WEB</text>
		<text transform="matrix(1 0 0 1 95.5851 18.108)" class="st12 st13">UDVIKLER</text>
		<rect x="53.3" y="6.4" class="st11" width="16" height="16"/>
		<text transform="matrix(1 0 0 1 171.4684 17.353)" class="st12 st13">DIGITAL</text>
		<text transform="matrix(1 0 0 1 212.7684 17.353)" class="st12 st13">MEDIA</text>
		<rect x="153.3" y="6.4" class="st10" width="16" height="16"/>
		<text transform="matrix(1 0 0 1 269.8506 16.9322)" class="st12 st13">MEDIE</text>
		<text transform="matrix(1 0 0 1 302.5506 16.9322)" class="st12 st13">GRAFIKER</text>
		<rect x="251.3" y="6.4" class="st9" width="16" height="16"/>
		<text transform="matrix(1 0 0 1 377.7477 17.5046)" class="st12 st13">GRAFISK</text>
		<text transform="matrix(1 0 0 1 422.0477 17.5046)" class="st12 st13">TEKNIKER</text>
		<rect x="359.3" y="6.4" class="st14" width="16" height="16"/>
		<text transform="matrix(1 0 0 1 501.5125 17.2448)" class="st12 st13">GF</text>
		<text transform="matrix(1 0 0 1 514.5125 17.2448)" class="st12 st13">1</text>
		<rect x="482.3" y="6.4" class="st15" width="16" height="16"/>
	</g>
</g>
<g id="Layer_2" class="st0">
	<g id="STUEN_1_" class="st1">
		<g id="STUEN-KORT">
			<line class="st3" x1="378.4" y1="78.1" x2="378.4" y2="100.7"/>
			<rect x="344.5" y="77.9" class="st2" width="53.2" height="23.1"/>
			<rect x="2.2" y="10.8" class="st4" width="274" height="164.4"/>
			<rect x="276.2" y="10.9" class="st16" width="68" height="86.4"/>
			<polygon class="st16" points="480.5,11 480.5,74.7 430,75.2 430,84.3 398.2,83.8 398.3,78 344.5,78.2 344.6,11 			"/>
			<rect x="276.2" y="122.7" class="st4" width="169.1" height="52.6"/>
			<rect x="480.8" y="11.1" class="st4" width="65.6" height="111.2"/>
			<path class="st5" d="M493.6,11v21.9c0,0.8-0.7,1.5-1.5,1.5h-11.4V11H493.6z"/>
			<path class="st5" d="M497.3,11v25.8c0,0.8-0.7,1.5-1.5,1.5h-15.1V11H497.3z"/>
			<path class="st5" d="M501.4,10.9v30c0,0.7-0.6,1.3-1.3,1.3h-19.4V10.9H501.4z"/>
			<path class="st5" d="M505.5,10.9v33.8c0,0.8-0.7,1.5-1.5,1.5h-23.1V10.9H505.5z"/>
			<path class="st5" d="M509.3,10.6v38.1c0,0.9-0.7,1.6-1.6,1.6h-26.9V10.6H509.3z"/>
			<path class="st5" d="M513.1,11v41.7c0,0.8-0.7,1.5-1.5,1.5h-30.7V11H513.1z"/>
			<path class="st5" d="M517.4,10.9v45.9c0,0.8-0.7,1.5-1.5,1.5h-35.1V10.9H517.4z"/>
			<line class="st5" x1="489.6" y1="34.4" x2="489.6" y2="11"/>
			<polyline class="st5" points="489.6,22.8 487.7,22.8 487.7,14.3 			"/>
			<polyline class="st5" points="493.6,22.8 491.6,22.8 491.6,11.2 			"/>
			<polyline class="st5" points="497.3,22.9 495.6,22.9 495.6,10.6 			"/>
			<polyline class="st5" points="501.4,22.8 499.6,22.8 499.5,10.6 			"/>
			<polyline class="st5" points="505.5,22.9 503.6,22.9 503.6,10.9 			"/>
			<polyline class="st5" points="509.3,22.9 507.7,22.9 507.7,10.3 			"/>
			<polyline class="st5" points="513.1,22.9 511.5,22.9 511.5,10.6 			"/>
			<polyline class="st5" points="517.4,22.9 515.5,22.8 515.5,10.3 			"/>
			<rect x="2.4" y="11.3" class="st4" width="35.6" height="86.9"/>
			<line class="st5" x1="2.1" y1="56.2" x2="38" y2="56.2"/>
			<line class="st4" x1="2.6" y1="123.1" x2="39" y2="123.1"/>
			<line class="st4" x1="139.1" y1="97.4" x2="139.1" y2="65"/>
			<rect x="139.2" y="11.3" class="st4" width="34.5" height="53.8"/>
			<rect x="175.8" y="123.1" class="st4" width="100.4" height="51.8"/>
			<line class="st4" x1="242.7" y1="97.3" x2="279.1" y2="97.3"/>
			<g>
				<circle class="st8" cx="514" cy="77" r="25"/>
				<text transform="matrix(1 0 0 1 500.3956 74.2033)" class="st12 st13" style="fill:#FFFFFF;">N</text>
				<text transform="matrix(1 0 0 1 508.0956 74.2033)" class="st12 st13" style="fill:#FFFFFF;">111a</text>
				<text transform="matrix(1 0 0 1 494.3956 85.0033)" class="st12" style="fill:#FFFFFF; font-size:6px;">PYRA</text>
				<text transform="matrix(1 0 0 1 513.3956 85.0033)" class="st12" style="fill:#FFFFFF; font-size:6px;">MIDEN</text>
				<text transform="matrix(1 0 0 1 531.0956 85.0033)" class="st12 st13" style="fill:#FFFFFF;"> </text>
			</g>
			<g>
				<circle class="st15" cx="412.7" cy="48.3" r="18"/>
				<text transform="matrix(1 0 0 1 401.3912 50.8842)" class="st12 st13" style="fill:#FFFFFF;">N</text>
				<text transform="matrix(1 0 0 1 409.0912 50.8842)" class="st12 st13" style="fill:#FFFFFF;">112</text>
			</g>
			<g>
				<path class="st14" d="M328.4,53.7c0,9.9-8.1,18-18,18s-18-8.1-18-18s8.1-18,18-18S328.4,43.8,328.4,53.7z"/>
				<text transform="matrix(1 0 0 1 296.5518 56.3265)" class="st12 st13" style="fill:#FFFFFF;">N</text>
				<text transform="matrix(1 0 0 1 304.2518 56.3265)" class="st12 st13" style="fill:#FFFFFF;">112b</text>
			</g>
			<g>
				<circle class="st15" cx="330.1" cy="149.8" r="18"/>
				<text transform="matrix(1 0 0 1 318.7495 152.4297)" class="st12 st13" style="fill:#FFFFFF;">N</text>
				<text transform="matrix(1 0 0 1 326.4495 152.4297)" class="st12 st13" style="fill:#FFFFFF;">121</text>
			</g>
			<g>
				<circle class="st15" cx="409.3" cy="149.5" r="18"/>
				<text transform="matrix(1 0 0 1 397.9839 152.0771)" class="st12 st13" style="fill:#FFFFFF;">N</text>
				<text transform="matrix(1 0 0 1 405.6839 152.0771)" class="st12 st13" style="fill:#FFFFFF;">122</text>
			</g>
			<g>
				<path class="st14" d="M243.7,52.4c0,10.1-8.2,18.2-18.2,18.2s-18.2-8.2-18.2-18.2s8.2-18.2,18.2-18.2S243.7,42.4,243.7,52.4z"/>
				<text transform="matrix(1 0 0 1 214.1417 55.0387)" class="st12 st13" style="fill:#FFFFFF;">N</text>
				<text transform="matrix(1 0 0 1 221.8417 55.0387)" class="st12 st13" style="fill:#FFFFFF;">113</text>
			</g>
			<g>
				<path class="st14" d="M243.8,149.5c0,9.9-8.1,18-18,18s-18-8.1-18-18s8.1-18,18-18S243.8,139.5,243.8,149.5z"/>
				<text transform="matrix(1 0 0 1 214.4318 152.0771)" class="st12 st13" style="fill:#FFFFFF;">N</text>
				<text transform="matrix(1 0 0 1 222.1318 152.0771)" class="st12 st13" style="fill:#FFFFFF;">120</text>
			</g>
			<g>
				<path class="st14" d="M159.9,151.4c0,9.9-8.1,18-18,18s-18-8.1-18-18s8.1-18,18-18C151.8,133.4,159.9,141.4,159.9,151.4z"/>
				<text transform="matrix(1 0 0 1 130.5392 153.9841)" class="st12 st13" style="fill:#FFFFFF;">N</text>
				<text transform="matrix(1 0 0 1 138.2392 153.9841)" class="st12 st13" style="fill:#FFFFFF;">119</text>
			</g>
			<g>
				<path class="st14" d="M105.5,148.5c0,8.2-6.6,14.8-14.8,14.8s-14.8-6.6-14.8-14.8s6.6-14.8,14.8-14.8S105.5,140.3,105.5,148.5z"
					/>
				<text transform="matrix(1 0 0 1 79.374 151.0868)" class="st12 st13" style="fill:#FFFFFF;">N</text>
				<text transform="matrix(1 0 0 1 87.074 151.0868)" class="st12 st13" style="fill:#FFFFFF;">118</text>
			</g>
			<g>
				<path class="st14" d="M102.9,50.9c0,9.9-8.1,18-18,18s-18-8.1-18-18s8.1-18,18-18C94.9,32.9,102.9,40.9,102.9,50.9z"/>
				<text transform="matrix(1 0 0 1 73.5874 53.4944)" class="st12 st13" style="fill:#FFFFFF;">N</text>
				<text transform="matrix(1 0 0 1 81.2874 53.4944)" class="st12 st13" style="fill:#FFFFFF;">114</text>
			</g>
			<g>
				<path class="st14" d="M36.2,77c0,8.5-6.9,15.4-15.4,15.4S5.4,85.5,5.4,77s6.9-15.4,15.4-15.4S36.2,68.5,36.2,77z"/>
				<text transform="matrix(1 0 0 1 9.4498 79.6032)" class="st12 st13" style="fill:#FFFFFF;">N</text>
				<text transform="matrix(1 0 0 1 17.1498 79.6032)" class="st12 st13" style="fill:#FFFFFF;">115</text>
			</g>
			<g>
				<path class="st14" d="M54.2,149.8c0,9.9-8.1,18-18,18s-18-8.1-18-18s8.1-18,18-18S54.2,139.9,54.2,149.8z"/>
				<text transform="matrix(1 0 0 1 23.5622 152.4293)" class="st12 st13" style="fill:#FFFFFF;">N</text>
				<text transform="matrix(1 0 0 1 31.2622 152.4293)" class="st12 st13" style="fill:#FFFFFF;">117 </text>
			</g>
			<rect x="72.7" y="122.9" class="st4" width="35.3" height="52"/>
		</g>
		<text transform="matrix(1 0 0 1 3.4854 1.7026)" class="st12 st13">N-GANGEN </text>
		<text transform="matrix(1 0 0 1 60.7854 1.7026)" class="st12 st13">STUEN</text>
	</g>
</g>
</svg>
