<?xml version="1.0" encoding="utf-8"?>
<!-- Generator: Adobe Illustrator 22.1.0, SVG Export Plug-In . SVG Version: 6.00 Build 0)  -->
<svg version="1.1" xmlns="http://www.w3.org/2000/svg" xmlns:xlink="http://www.w3.org/1999/xlink" x="0px" y="0px"
	 viewBox="0 0 546.2 180.2" style="enable-background:new 0 0 546.2 180.2;" xml:space="preserve">
<style type="text/css">
	.st0{fill:none;stroke:#A09F9F;stroke-width:2;stroke-miterlimit:10;}
	.st1{fill:none;stroke:#A09F9F;stroke-miterlimit:10;}
	.st2{fill:none;stroke:#000000;stroke-width:2;stroke-miterlimit:10;}
	.st3{fill:none;stroke:#000000;stroke-miterlimit:10;}
	.st4{fill:none;stroke:#4DD6E8;stroke-miterlimit:10;}
	.st5{fill:#878787;}
	.st6{fill:#FFFFFF;}
	.st7{font-family:'ArialMT';}
	.st8{font-size:9px;}
	.st9{font-size:4px;}
	.st10{fill:#FFC015;}
	.st11{font-size:6px;}
	.st12{font-size:3px;}
	.st13{fill:#9916B1;}
	.st14{font-size:5px;}
	.st15{fill:#84B12A;}
	.st16{fill:#D83A46;}
</style>
<g id="Layer_1">
	<g id="FØRSTESAL">
		<g id="FØRSTESAL-KORT">
			<rect x="51.5" y="80.9" class="st0" width="34.7" height="28.1"/>
			<line class="st1" x1="68.9" y1="80.6" x2="69" y2="109.1"/>
			<rect x="391.7" y="80.9" class="st0" width="51.5" height="28"/>
			<line class="st1" x1="409.1" y1="81.4" x2="409.2" y2="109.1"/>
			<rect x="1.2" y="129.4" class="st2" width="135.4" height="49.8"/>
			<rect x="478.5" y="18.1" class="st2" width="66.7" height="109.3"/>
			<rect x="407.7" y="17.6" class="st2" width="52.1" height="63.3"/>
			<rect x="291" y="17.6" class="st2" width="117.2" height="63.3"/>
			<rect x="239.5" y="17.6" class="st2" width="51.2" height="84"/>
			<rect x="187" y="17.6" class="st2" width="52.3" height="83.8"/>
			<rect x="136.5" y="129.4" class="st2" width="85" height="49.8"/>
			<rect x="137.6" y="17.6" class="st2" width="49.4" height="63.3"/>
			<rect x="102" y="17.5" class="st2" width="35.7" height="63.4"/>
			<rect x="51.7" y="17.5" class="st2" width="50.3" height="63.4"/>
			<rect x="1" y="17.6" class="st2" width="50.7" height="83.3"/>
			<line class="st3" x1="478.5" y1="54.9" x2="486.7" y2="54.9"/>
			<line class="st3" x1="478.5" y1="52.9" x2="486.9" y2="52.9"/>
			<line class="st3" x1="478.2" y1="50.9" x2="486.9" y2="50.9"/>
			<line class="st3" x1="478.1" y1="48.9" x2="487" y2="48.9"/>
			<line class="st3" x1="478.5" y1="47" x2="486.9" y2="47"/>
			<line class="st3" x1="478.2" y1="45" x2="487" y2="45"/>
			<line class="st3" x1="478.5" y1="43" x2="486.6" y2="43"/>
			<line class="st3" x1="478.5" y1="41" x2="486.6" y2="41"/>
			<line class="st3" x1="478.2" y1="39" x2="486.6" y2="39"/>
			<line class="st3" x1="484.7" y1="17.9" x2="484.7" y2="28.2"/>
			<rect x="486.9" y="28.6" class="st4" width="22.7" height="27.7"/>
			<rect x="485.1" y="26.7" class="st4" width="26.7" height="31.4"/>
			<rect x="221.6" y="129.3" class="st2" width="34" height="49.8"/>
			<rect x="255.6" y="150" class="st2" width="34.1" height="29.1"/>
			<rect x="289.7" y="150" class="st2" width="26.6" height="29.1"/>
			<rect x="316.8" y="150" class="st2" width="24.1" height="29.1"/>
			<rect x="341.2" y="129.7" class="st2" width="35.3" height="49.3"/>
			<rect x="376.4" y="129.7" class="st2" width="65.2" height="49.3"/>
			<rect x="478.5" y="127.4" class="st2" width="66.7" height="51.6"/>
			<g>
				<path class="st5" d="M135,48.6c0,8.1-6.5,14.6-14.6,14.6s-14.6-6.5-14.6-14.6S112.3,34,120.4,34C128.5,34,135,40.5,135,48.6z"/>
				<text transform="matrix(1 0 0 1 109.0555 51.2405)" class="st6 st7 st8">N</text>
				<text transform="matrix(1 0 0 1 116.7555 51.2405)" class="st6 st7 st8">223</text>
				<text transform="matrix(1 0 0 1 111.2555 56.0405)" class="st6 st7 st9">TECH</text>
				<text transform="matrix(1 0 0 1 122.8555 56.0405)" class="st6 st7 st9">LAB</text>
			</g>
			<g>
				<circle class="st10" cx="513.8" cy="88.8" r="25"/>
				<text transform="matrix(1 0 0 1 502.4608 86.017)" class="st6 st7 st8">N</text>
				<text transform="matrix(1 0 0 1 510.1608 86.017)" class="st6 st7 st8">209</text>
				<text transform="matrix(1 0 0 1 495.4608 93.217)" class="st6 st7 st11">PYRA</text>
				<text transform="matrix(1 0 0 1 514.4608 93.217)" class="st6 st7 st11">MIDEN</text>
			</g>
			<g>
				<path class="st5" d="M451.7,48.9c0,9.9-8.1,18-18,18s-18-8.1-18-18s8.1-18,18-18C443.7,30.9,451.7,39,451.7,48.9z"/>
				<text transform="matrix(1 0 0 1 422.3576 51.5987)" class="st6 st7 st8">N</text>
				<text transform="matrix(1 0 0 1 430.0576 51.5987)" class="st6 st7 st8">214</text>
				<text transform="matrix(1 0 0 1 419.4576 55.1987)" class="st6 st7 st12">EFTER</text>
				<text transform="matrix(1 0 0 1 430.1576 55.1987)" class="st6 st7 st12">UDDANNELSE</text>
			</g>
			<g>
				<path class="st13" d="M392.8,49.7c0,9.9-8.1,18-18,18s-18-8.1-18-18s8.1-18,18-18S392.8,39.8,392.8,49.7z"/>
				<text transform="matrix(1 0 0 1 361.1277 52.3484)" class="st6 st7 st8">N</text>
				<text transform="matrix(1 0 0 1 368.8277 52.3484)" class="st6 st7 st8">215a</text>
			</g>
			<g>
				<path class="st13" d="M334.8,49.2c0,9.9-8.1,18-18,18s-18-8.1-18-18s8.1-18,18-18S334.8,39.3,334.8,49.2z"/>
				<text transform="matrix(1 0 0 1 305.4 51.8685)" class="st6 st7 st8">N</text>
				<text transform="matrix(1 0 0 1 313.1 51.8685)" class="st6 st7 st8">215</text>
			</g>
			<g>
				<path class="st13" d="M283.1,61.3c0,9.9-8.1,18-18,18s-18-8.1-18-18s8.1-18,18-18C275,43.3,283.1,51.4,283.1,61.3z"/>
				<text transform="matrix(1 0 0 1 253.701 63.9871)" class="st6 st7 st8">N</text>
				<text transform="matrix(1 0 0 1 261.401 63.9871)" class="st6 st7 st8">218</text>
			</g>
			<g>
				<path class="st5" d="M231.3,63.2c0,9.9-8.1,18-18,18s-18-8.1-18-18s8.1-18,18-18C223.2,45.2,231.3,53.2,231.3,63.2z"/>
				<text transform="matrix(1 0 0 1 201.8871 65.8177)" class="st6 st7 st8">N</text>
				<text transform="matrix(1 0 0 1 209.5871 65.8177)" class="st6 st7 st8">219</text>
				<text transform="matrix(1 0 0 1 201.4871 70.6178)" class="st6 st7 st9">DESIGN</text>
				<text transform="matrix(1 0 0 1 218.2871 70.6178)" class="st6 st7 st9">LAB</text>
			</g>
			<g>
				<path class="st5" d="M180,47.8c0,9.9-8.1,18-18,18s-18-8.1-18-18s8.1-18,18-18S180,37.8,180,47.8z"/>
				<text transform="matrix(1 0 0 1 150.5761 50.4124)" class="st6 st7 st8">N</text>
				<text transform="matrix(1 0 0 1 158.2761 50.4124)" class="st6 st7 st8">221</text>
				<text transform="matrix(1 0 0 1 147.7761 56.4124)" class="st6 st7 st14">PHOTO</text>
				<text transform="matrix(1 0 0 1 167.7761 56.4124)" class="st6 st7 st14">LAB</text>
			</g>
			<g>
				<path class="st15" d="M95.3,47.8c0,9.9-8.1,18-18,18s-18-8.1-18-18s8.1-18,18-18S95.3,37.8,95.3,47.8z"/>
				<text transform="matrix(1 0 0 1 65.9083 50.4124)" class="st6 st7 st8">N</text>
				<text transform="matrix(1 0 0 1 73.6083 50.4124)" class="st6 st7 st8">225</text>
			</g>
			<g>
				<path class="st16" d="M43.2,63.2c0,9.9-8.1,18-18,18s-18-8.1-18-18s8.1-18,18-18S43.2,53.2,43.2,63.2z"/>
				<text transform="matrix(1 0 0 1 13.8265 65.8177)" class="st6 st7 st8">N</text>
				<text transform="matrix(1 0 0 1 21.5265 65.8177)" class="st6 st7 st8">226</text>
			</g>
			<g>
				<path class="st16" d="M82.8,155.4c0,9.9-8.1,18-18,18s-18-8.1-18-18s8.1-18,18-18S82.8,145.4,82.8,155.4z"/>
				<text transform="matrix(1 0 0 1 53.3789 158.0179)" class="st6 st7 st8">N</text>
				<text transform="matrix(1 0 0 1 61.0789 158.0179)" class="st6 st7 st8">228</text>
			</g>
			<g>
				<path class="st5" d="M198,154.1c0,9.9-8.1,18-18,18s-18-8.1-18-18s8.1-18,18-18S198,144.2,198,154.1z"/>
				<text transform="matrix(1 0 0 1 168.576 156.7784)" class="st6 st7 st8">N</text>
				<text transform="matrix(1 0 0 1 176.276 156.7784)" class="st6 st7 st8">230</text>
				<text transform="matrix(1 0 0 1 164.876 161.5785)" class="st6 st7 st9">UNDER</text>
				<text transform="matrix(1 0 0 1 180.576 161.5785)" class="st6 st7 st9">VISNING</text>
			</g>
			<line class="st3" x1="341.8" y1="17.5" x2="341.8" y2="81.9"/>
			<polyline class="st3" points="399.9,129.7 399.9,157 409.3,157.1 409.1,178.5 			"/>
		</g>
		<text transform="matrix(1 0 0 1 1.254 7.7235)" class="st7 st8">N-GANGEN </text>
		<text transform="matrix(1 0 0 1 58.554 7.7235)" class="st7 st8">FØRSTESAL</text>
	</g>
</g>
<g id="Layer_2">
</g>
</svg>
