<?xml version="1.0" encoding="utf-8"?>
<!-- Generator: Adobe Illustrator 22.1.0, SVG Export Plug-In . SVG Version: 6.00 Build 0)  -->
<svg version="1.1" xmlns="http://www.w3.org/2000/svg" xmlns:xlink="http://www.w3.org/1999/xlink" x="0px" y="0px"
	 viewBox="0 0 546.2 180.2" style="enable-background:new 0 0 546.2 180.2;" xml:space="preserve">
<style type="text/css">
	.st0{fill:none;stroke:#A09F9F;stroke-miterlimit:10;}
	.st1{fill:none;stroke:#A09F9F;stroke-width:2;stroke-miterlimit:10;}
	.st2{fill:none;stroke:#000000;stroke-width:2;stroke-miterlimit:10;}
	.st3{fill:#FFFFFF;stroke:#000000;stroke-width:2;stroke-miterlimit:10;}
	.st4{fill:none;stroke:#000000;stroke-miterlimit:10;}
	.st5{fill:#f28927;}
	.st6{fill:#FFFFFF;}
	.st7{font-family:'ArialMT';}
	.st8{font-size:9px;}
	.st9{font-size:6px;}
	.st10{fill:#585968;}
	.st11{fill:#009BB9;}
</style>
<g id="Layer_1">
</g>
<g id="Layer_2">
	<g id="STUEN_1_">
		<g id="STUEN-KORT">
			<line class="st0" x1="378.4" y1="84.1" x2="378.4" y2="106.7"/>
			<rect x="344.5" y="83.9" class="st1" width="53.2" height="23.1"/>
			<rect x="2.2" y="16.8" class="st2" width="274" height="164.4"/>
			<rect x="276.2" y="16.9" class="st3" width="68" height="86.4"/>
			<polygon class="st3" points="480.5,17 480.5,80.7 430,81.2 430,90.3 398.2,89.8 398.3,84 344.5,84.2 344.6,17 			"/>
			<rect x="276.2" y="128.7" class="st2" width="169.1" height="52.6"/>
			<rect x="480.8" y="17.1" class="st2" width="65.6" height="111.2"/>
			<path class="st4" d="M493.6,17v21.9c0,0.8-0.7,1.5-1.5,1.5h-11.4V17H493.6z"/>
			<path class="st4" d="M497.3,17v25.8c0,0.8-0.7,1.5-1.5,1.5h-15.1V17H497.3z"/>
			<path class="st4" d="M501.4,16.9v30c0,0.7-0.6,1.3-1.3,1.3h-19.4V16.9H501.4z"/>
			<path class="st4" d="M505.5,16.9v33.8c0,0.8-0.7,1.5-1.5,1.5h-23.1V16.9H505.5z"/>
			<path class="st4" d="M509.3,16.6v38.1c0,0.9-0.7,1.6-1.6,1.6h-26.9V16.6H509.3z"/>
			<path class="st4" d="M513.1,17v41.7c0,0.8-0.7,1.5-1.5,1.5h-30.7V17H513.1z"/>
			<path class="st4" d="M517.4,16.9v45.9c0,0.8-0.7,1.5-1.5,1.5h-35.1V16.9H517.4z"/>
			<line class="st4" x1="489.6" y1="40.4" x2="489.6" y2="17"/>
			<polyline class="st4" points="489.6,28.8 487.7,28.8 487.7,20.3 			"/>
			<polyline class="st4" points="493.6,28.8 491.6,28.8 491.6,17.2 			"/>
			<polyline class="st4" points="497.3,28.9 495.6,28.9 495.6,16.6 			"/>
			<polyline class="st4" points="501.4,28.8 499.6,28.8 499.5,16.6 			"/>
			<polyline class="st4" points="505.5,28.9 503.6,28.9 503.6,16.9 			"/>
			<polyline class="st4" points="509.3,28.9 507.7,28.9 507.7,16.3 			"/>
			<polyline class="st4" points="513.1,28.9 511.5,28.9 511.5,16.6 			"/>
			<polyline class="st4" points="517.4,28.9 515.5,28.8 515.5,16.3 			"/>
			<rect x="2.4" y="17.3" class="st2" width="35.6" height="86.9"/>
			<line class="st4" x1="2.1" y1="62.2" x2="38" y2="62.2"/>
			<line class="st2" x1="2.6" y1="129.1" x2="39" y2="129.1"/>
			<line class="st2" x1="139.1" y1="103.4" x2="139.1" y2="71"/>
			<rect x="139.2" y="17.3" class="st2" width="34.5" height="53.8"/>
			<rect x="175.8" y="129.1" class="st2" width="100.4" height="51.8"/>
			<line class="st2" x1="242.7" y1="103.3" x2="279.1" y2="103.3"/>
			<g>
				<circle class="st5" cx="514" cy="83" r="25"/>
				<text transform="matrix(1 0 0 1 500.3956 80.2033)" class="st6 st7 st8">N</text>
				<text transform="matrix(1 0 0 1 508.0956 80.2033)" class="st6 st7 st8">111a</text>
				<text transform="matrix(1 0 0 1 494.3956 91.0033)" class="st6 st7 st9">PYRA</text>
				<text transform="matrix(1 0 0 1 513.3956 91.0033)" class="st6 st7 st9">MIDEN</text>
				<text transform="matrix(1 0 0 1 531.0956 91.0033)" class="st6 st7 st8"> </text>
			</g>
			<g>
				<circle class="st10" cx="412.7" cy="54.3" r="18"/>
				<text transform="matrix(1 0 0 1 401.3912 56.8842)" class="st6 st7 st8">N</text>
				<text transform="matrix(1 0 0 1 409.0912 56.8842)" class="st6 st7 st8">112</text>
			</g>
			<g>
				<path class="st11" d="M328.4,59.7c0,9.9-8.1,18-18,18s-18-8.1-18-18s8.1-18,18-18S328.4,49.8,328.4,59.7z"/>
				<text transform="matrix(1 0 0 1 296.5518 62.3265)" class="st6 st7 st8">N</text>
				<text transform="matrix(1 0 0 1 304.2518 62.3265)" class="st6 st7 st8">112b</text>
			</g>
			<g>
				<circle class="st10" cx="330.1" cy="155.8" r="18"/>
				<text transform="matrix(1 0 0 1 318.7495 158.4297)" class="st6 st7 st8">N</text>
				<text transform="matrix(1 0 0 1 326.4495 158.4297)" class="st6 st7 st8">121</text>
			</g>
			<g>
				<circle class="st10" cx="409.3" cy="155.5" r="18"/>
				<text transform="matrix(1 0 0 1 397.9839 158.0771)" class="st6 st7 st8">N</text>
				<text transform="matrix(1 0 0 1 405.6839 158.0771)" class="st6 st7 st8">122</text>
			</g>
			<g>
				<path class="st11" d="M243.7,58.4c0,10.1-8.2,18.2-18.2,18.2s-18.2-8.2-18.2-18.2s8.2-18.2,18.2-18.2S243.7,48.4,243.7,58.4z"/>
				<text transform="matrix(1 0 0 1 214.1417 61.0387)" class="st6 st7 st8">N</text>
				<text transform="matrix(1 0 0 1 221.8417 61.0387)" class="st6 st7 st8">113</text>
			</g>
			<g>
				<path class="st11" d="M243.8,155.5c0,9.9-8.1,18-18,18s-18-8.1-18-18s8.1-18,18-18S243.8,145.5,243.8,155.5z"/>
				<text transform="matrix(1 0 0 1 214.4318 158.0771)" class="st6 st7 st8">N</text>
				<text transform="matrix(1 0 0 1 222.1318 158.0771)" class="st6 st7 st8">120</text>
			</g>
			<g>
				<path class="st11" d="M159.9,157.4c0,9.9-8.1,18-18,18s-18-8.1-18-18s8.1-18,18-18C151.8,139.4,159.9,147.4,159.9,157.4z"/>
				<text transform="matrix(1 0 0 1 130.5392 159.9841)" class="st6 st7 st8">N</text>
				<text transform="matrix(1 0 0 1 138.2392 159.9841)" class="st6 st7 st8">119</text>
			</g>
			<g>
				<path class="st11" d="M105.5,154.5c0,8.2-6.6,14.8-14.8,14.8s-14.8-6.6-14.8-14.8s6.6-14.8,14.8-14.8S105.5,146.3,105.5,154.5z"
					/>
				<text transform="matrix(1 0 0 1 79.374 157.0868)" class="st6 st7 st8">N</text>
				<text transform="matrix(1 0 0 1 87.074 157.0868)" class="st6 st7 st8">118</text>
			</g>
			<g>
				<path class="st11" d="M102.9,56.9c0,9.9-8.1,18-18,18s-18-8.1-18-18s8.1-18,18-18C94.9,38.9,102.9,46.9,102.9,56.9z"/>
				<text transform="matrix(1 0 0 1 73.5874 59.4944)" class="st6 st7 st8">N</text>
				<text transform="matrix(1 0 0 1 81.2874 59.4944)" class="st6 st7 st8">114</text>
			</g>
			<g>
				<path class="st11" d="M36.2,83c0,8.5-6.9,15.4-15.4,15.4S5.4,91.5,5.4,83s6.9-15.4,15.4-15.4S36.2,74.5,36.2,83z"/>
				<text transform="matrix(1 0 0 1 9.4498 85.6032)" class="st6 st7 st8">N</text>
				<text transform="matrix(1 0 0 1 17.1498 85.6032)" class="st6 st7 st8">115</text>
			</g>
			<g>
				<path class="st11" d="M54.2,155.8c0,9.9-8.1,18-18,18s-18-8.1-18-18s8.1-18,18-18S54.2,145.9,54.2,155.8z"/>
				<text transform="matrix(1 0 0 1 23.5622 158.4293)" class="st6 st7 st8">N</text>
				<text transform="matrix(1 0 0 1 31.2622 158.4293)" class="st6 st7 st8">117 </text>
			</g>
			<rect x="72.7" y="128.9" class="st2" width="35.3" height="52"/>
		</g>
		<text transform="matrix(1 0 0 1 3.4854 7.7026)" class="st7 st8">N-GANGEN </text>
		<text transform="matrix(1 0 0 1 60.7854 7.7026)" class="st7 st8">STUEN</text>
	</g>
</g>
</svg>
