<?xml version="1.0" encoding="utf-8"?>
<!-- Generator: Adobe Illustrator 22.1.0, SVG Export Plug-In . SVG Version: 6.00 Build 0)  -->
<svg version="1.1" xmlns="http://www.w3.org/2000/svg" xmlns:xlink="http://www.w3.org/1999/xlink" x="0px" y="0px"
	 viewBox="0 0 1418.6 466.8" style="enable-background:new 0 0 1418.6 466.8;" xml:space="preserve">
<style type="text/css">
	.st0{fill:none;stroke:#000000;stroke-miterlimit:10;}
	.st1{fill:none;stroke:#A09F9F;stroke-width:2;stroke-miterlimit:10;}
	.st2{fill:none;stroke:#A09F9F;stroke-miterlimit:10;}
	.st3{fill:none;stroke:#000000;stroke-width:2;stroke-miterlimit:10;}
	.st4{fill:none;stroke:#4DD6E8;stroke-miterlimit:10;}
	.st5{fill:#878787;}
	.st6{fill:#FFFFFF;}
	.st7{font-family:'FrutigerLTStd-UltraBlack';}
	.st8{font-size:26.4658px;}
	.st9{font-family:'FrutigerLTStd-Light';}
	.st10{font-size:11.7626px;}
	.st11{fill:#FFC015;}
	.st12{font-size:22.935px;}
	.st13{font-size:15.29px;}
	.st14{font-size:27.923px;}
	.st15{font-size:9.3077px;}
	.st16{fill:#9916B1;}
	.st17{font-size:10.1933px;}
	.st18{font-size:28.4687px;}
	.st19{font-size:12.6528px;}
	.st20{fill:#84B12A;}
	.st21{fill:#D83A46;}
	.st22{font-size:26.2197px;}
	.st23{font-size:14.3092px;}
</style>
<g id="Layer_1">
</g>
<g id="Layer_2">
	<g id="første_x5F_kort">
		<line class="st0" x1="162.6" y1="133.5" x2="184.8" y2="133.5"/>
		<line class="st0" x1="162.4" y1="128.4" x2="185" y2="128.4"/>
		<line class="st0" x1="162.6" y1="123.5" x2="184" y2="123.5"/>
		<line class="st0" x1="162.4" y1="118.4" x2="184.8" y2="118.4"/>
		<line class="st0" x1="163.4" y1="113.3" x2="184" y2="113.3"/>
		<line class="st0" x1="163.4" y1="108.2" x2="184" y2="108.2"/>
		<line class="st0" x1="163.4" y1="103.1" x2="184.8" y2="103.1"/>
		<line class="st0" x1="168.2" y1="75.6" x2="168.2" y2="49.4"/>
		<g>
			<line class="st0" x1="163.1" y1="143.7" x2="184" y2="143.7"/>
			<line class="st0" x1="162.6" y1="138.6" x2="184" y2="138.6"/>
			<rect x="1183.8" y="210" class="st1" width="88.4" height="71.6"/>
			<line class="st2" x1="1227.5" y1="281.8" x2="1227.8" y2="209.2"/>
			<rect x="274" y="210" class="st1" width="131.3" height="71.4"/>
			<line class="st2" x1="360.6" y1="281.8" x2="360.8" y2="211.2"/>
			<rect x="1055.1" y="333.4" class="st3" width="345.1" height="126.9"/>
			<rect x="14" y="49.6" class="st3" width="169.9" height="278.5"/>
			<rect x="231.6" y="48.4" class="st3" width="132.7" height="161.3"/>
			<rect x="363.2" y="48.4" class="st3" width="298.7" height="161.3"/>
			<rect x="662.6" y="48.5" class="st3" width="130.5" height="214.1"/>
			<rect x="793.4" y="48.4" class="st3" width="133.2" height="213.5"/>
			<rect x="838.8" y="333.4" class="st3" width="216.6" height="126.9"/>
			<rect x="926.8" y="48.4" class="st3" width="125.9" height="161.3"/>
			<rect x="1052.5" y="48.3" class="st3" width="90.9" height="161.5"/>
			<rect x="1143.4" y="48.3" class="st3" width="128.1" height="161.5"/>
			<rect x="1271.6" y="48.6" class="st3" width="129.2" height="212.2"/>
			<rect x="104.7" y="76.6" class="st4" width="57.9" height="70.6"/>
			<rect x="99.2" y="71.8" class="st4" width="68" height="80"/>
			<rect x="752" y="333.2" class="st3" width="86.6" height="126.9"/>
			<rect x="665.1" y="386" class="st3" width="86.9" height="74.2"/>
			<rect x="597.4" y="386" class="st3" width="67.7" height="74.2"/>
			<rect x="534.7" y="386" class="st3" width="61.4" height="74.2"/>
			<rect x="444" y="334.3" class="st3" width="90" height="125.6"/>
			<rect x="278" y="334.3" class="st3" width="166.1" height="125.6"/>
			<rect x="14.1" y="328.4" class="st3" width="169.9" height="131.5"/>
			<g>
				<path class="st5" d="M1141,125.6c0,23.8-19.1,43-42.9,43s-42.9-19.1-42.9-43s19.1-43,42.9-43C1121.8,82.6,1141,101.8,1141,125.6
					z"/>
				<text transform="matrix(1 0 0 1 1064.7324 133.1597)" class="st6 st7 st8">N</text>
				<text transform="matrix(1 0 0 1 1087.375 133.1597)" class="st6 st9 st8">223</text>
				<text transform="matrix(1 0 0 1 1071.2012 147.2749)" class="st6 st7 st10">TECH</text>
				<text transform="matrix(1 0 0 1 1105.3125 147.2749)" class="st6 st9 st10">LAB</text>
			</g>
			<g>
				<circle class="st11" cx="94.1" cy="230" r="63.7"/>
				<text transform="matrix(1 0 0 1 65.2583 222.8257)" class="st6 st7 st12">N</text>
				<text transform="matrix(1 0 0 1 84.8813 222.8257)" class="st6 st9 st12">209</text>
				<text transform="matrix(1 0 0 1 47.4204 241.1733)" class="st6 st7 st13">PYRA</text>
				<text transform="matrix(1 0 0 1 95.8374 241.1733)" class="st6 st9 st13">MIDEN</text>
			</g>
			<g>
				<path class="st5" d="M353.9,123.5c0,30.7-25.2,55.9-55.9,55.9s-55.9-25.2-55.9-55.9s25.2-55.9,55.9-55.9
					C329,67.6,353.9,92.8,353.9,123.5z"/>
				<text transform="matrix(1 0 0 1 262.9072 131.6821)" class="st6 st7 st14">N</text>
				<text transform="matrix(1 0 0 1 286.7988 131.6821)" class="st6 st9 st14">214</text>
				<text transform="matrix(1 0 0 1 253.9121 142.8501)" class="st6 st7 st15">EFTER</text>
				<text transform="matrix(1 0 0 1 287.1074 142.8501)" class="st6 st9 st15">UDDANNELSE</text>
			</g>
			<g>
				<path class="st16" d="M494.2,130.4c0,25.3-20.7,45.9-45.9,45.9c-25.3,0-45.9-20.7-45.9-45.9s20.7-45.9,45.9-45.9
					C473.5,84.4,494.2,105.2,494.2,130.4z"/>
				<text transform="matrix(1 0 0 1 413.5298 137.0259)" class="st6 st7 st12">N</text>
				<text transform="matrix(1 0 0 1 433.1538 137.0259)" class="st6 st9 st12">215a</text>
			</g>
			<g>
				<path class="st16" d="M642,129.1c0,25.3-20.7,45.9-45.9,45.9c-25.3,0-45.9-20.7-45.9-45.9s20.7-45.9,45.9-45.9
					C621.3,83.2,642,103.9,642,129.1z"/>
				<text transform="matrix(1 0 0 1 567.125 135.8042)" class="st6 st7 st12">N</text>
				<text transform="matrix(1 0 0 1 586.7451 135.8042)" class="st6 st9 st12">215</text>
			</g>
			<g>
				<path class="st16" d="M727.8,114.1c25.3,0,45.9,20.7,45.9,45.9s-20.7,45.9-45.9,45.9c-25.3,0-45.9-20.7-45.9-45.9
					S702.6,114.1,727.8,114.1z"/>
				<text transform="matrix(-1 0 0 1 756.7847 166.6851)" class="st6 st7 st12">N</text>
				<text transform="matrix(-1 0 0 1 737.1631 166.6851)" class="st6 st9 st12">218</text>
			</g>
			<g>
				<path class="st16" d="M773.7,159.9c0,25.3-20.7,45.9-45.9,45.9c-25.3,0-45.9-20.7-45.9-45.9s20.7-45.9,45.9-45.9
					C753.1,114.1,773.7,134.8,773.7,159.9z"/>
				<text transform="matrix(1 0 0 1 698.876 166.6851)" class="st6 st7 st12">N</text>
				<text transform="matrix(1 0 0 1 718.4985 166.6851)" class="st6 st9 st12">218</text>
			</g>
			<g>
				<path class="st5" d="M859.8,118.9c25.3,0,45.9,20.7,45.9,45.9s-20.7,45.9-45.9,45.9c-25.3,0-45.9-20.7-45.9-45.9
					C814,139.3,834.7,118.9,859.8,118.9z"/>
				<text transform="matrix(-1 0 0 1 888.8262 171.3511)" class="st6 st7 st12">N</text>
				<text transform="matrix(-1 0 0 1 869.2021 171.3511)" class="st6 st9 st12">219</text>
				<text transform="matrix(-1 0 0 1 889.8447 183.583)" class="st6 st7 st17">DESIGN</text>
				<text transform="matrix(-1 0 0 1 847.0332 183.583)" class="st6 st9 st17">LAB</text>
			</g>
			<g>
				<path class="st5" d="M914.1,164.8c0,31.3-25.6,57-57,57c-31.3,0-57-25.6-57-57s25.6-57,57-57
					C888.5,107.8,914.1,133.1,914.1,164.8z"/>
				<text transform="matrix(1 0 0 1 821.209 172.9258)" class="st6 st7 st18">N</text>
				<text transform="matrix(1 0 0 1 845.5664 172.9258)" class="st6 st9 st18">219</text>
				<text transform="matrix(1 0 0 1 819.9458 188.1099)" class="st6 st7 st19">DESIGN</text>
				<text transform="matrix(1 0 0 1 873.0859 188.1099)" class="st6 st9 st19">LAB</text>
			</g>
			<g>
				<path class="st20" d="M1252.3,125.6c0,25.3-20.7,45.9-45.9,45.9c-25.3,0-45.9-20.7-45.9-45.9s20.7-45.9,45.9-45.9
					C1231.6,79.7,1252.3,100.1,1252.3,125.6z"/>
				<text transform="matrix(1 0 0 1 1177.4688 132.0923)" class="st6 st7 st12">N</text>
				<text transform="matrix(1 0 0 1 1197.0918 132.0923)" class="st6 st9 st12">225</text>
			</g>
			<g>
				<path class="st21" d="M1339.2,118.9c25.3,0,45.9,20.7,45.9,45.9s-20.7,45.9-45.9,45.9c-25.3,0-45.9-20.7-45.9-45.9
					C1293.3,139.3,1314,118.9,1339.2,118.9z"/>
				<text transform="matrix(-1 0 0 1 1368.0664 171.3511)" class="st6 st7 st12">N</text>
				<text transform="matrix(-1 0 0 1 1348.4414 171.3511)" class="st6 st9 st12">226</text>
			</g>
			<g>
				<path class="st21" d="M1385,164.8c0,25.3-20.7,45.9-45.9,45.9c-25.3,0-45.9-20.7-45.9-45.9s20.7-45.9,45.9-45.9
					C1364.4,118.9,1385,139.3,1385,164.8z"/>
				<text transform="matrix(1 0 0 1 1310.2832 171.3511)" class="st6 st7 st12">N</text>
				<text transform="matrix(1 0 0 1 1329.9063 171.3511)" class="st6 st9 st12">226</text>
			</g>
			<g>
				<path class="st21" d="M1238.3,353.9c25.3,0,45.9,20.7,45.9,45.9c0,25.3-20.7,45.9-45.9,45.9s-45.9-20.7-45.9-45.9
					C1192.4,374.3,1213,353.9,1238.3,353.9z"/>
				<text transform="matrix(-1 0 0 1 1267.2695 406.3052)" class="st6 st7 st12">N</text>
				<text transform="matrix(-1 0 0 1 1247.6484 406.3052)" class="st6 st9 st12">228</text>
			</g>
			<g>
				<path class="st21" d="M1284.1,399.8c0,25.3-20.7,45.9-45.9,45.9s-45.9-20.7-45.9-45.9c0-25.3,20.7-45.9,45.9-45.9
					S1284.1,374.3,1284.1,399.8z"/>
				<text transform="matrix(1 0 0 1 1209.248 406.3052)" class="st6 st7 st12">N</text>
				<text transform="matrix(1 0 0 1 1228.8711 406.3052)" class="st6 st9 st12">228</text>
			</g>
			<g>
				<path class="st5" d="M990.6,396.4c0,25.3-20.7,45.9-45.9,45.9s-45.9-20.7-45.9-45.9c0-25.3,20.7-45.9,45.9-45.9
					S990.6,371.2,990.6,396.4z"/>
				<text transform="matrix(1 0 0 1 915.6738 403.1479)" class="st6 st7 st12">N</text>
				<text transform="matrix(1 0 0 1 935.2969 403.1479)" class="st6 st9 st12">230</text>
				<text transform="matrix(1 0 0 1 906.2461 415.3804)" class="st6 st7 st17">UNDER</text>
				<text transform="matrix(1 0 0 1 946.2539 415.3804)" class="st6 st9 st17">VISNING</text>
			</g>
			<g>
				<path class="st5" d="M1043.1,125.6c0,28.9-23.6,52.5-52.5,52.5c-28.9,0-52.5-23.6-52.5-52.5s23.6-52.5,52.5-52.5
					C1019.5,73.2,1043.1,96.5,1043.1,125.6z"/>
				<g>
					<text transform="matrix(1 0 0 1 957.4805 128.3071)" class="st6 st7 st22">N</text>
					<text transform="matrix(1 0 0 1 979.9121 128.3071)" class="st6 st9 st22">221</text>
					<text transform="matrix(1 0 0 1 944.1504 141.0503)" class="st6 st7 st23">PICTURE</text>
					<text transform="matrix(1 0 0 1 1013.3164 141.0503)" class="st6 st9 st23">LAB</text>
				</g>
			</g>
			<line class="st0" x1="532.1" y1="209.9" x2="532.1" y2="48.3"/>
			<polyline class="st0" points="360.8,458.6 360.3,404.1 384.3,403.8 384.3,334.3 			"/>
		</g>
		<text transform="matrix(1 0 0 1 14.6372 23.3081)" class="st7 st12">N-GANGEN </text>
		<text transform="matrix(1 0 0 1 160.6558 23.3081)" class="st9 st12">FØRSTESAL</text>
	</g>
</g>
</svg>
