<?xml version="1.0" encoding="utf-8"?>
<!-- Generator: Adobe Illustrator 22.1.0, SVG Export Plug-In . SVG Version: 6.00 Build 0)  -->
<svg version="1.1" id="Layer_1" xmlns="http://www.w3.org/2000/svg" xmlns:xlink="http://www.w3.org/1999/xlink" x="0px" y="0px"
	 viewBox="0 0 1892.4 78.2" style="enable-background:new 0 0 1892.4 78.2;" xml:space="preserve">
<style type="text/css">
	.st0{fill:#D83A46;}
	.st1{fill:#84B12A;}
	.st2{fill:#9916B1;}
	.st3{fill:#009BB9;}
	.st4{fill:#585968;}
	.st5{enable-background:new    ;}
</style>
<g id="OVERSIGT">
	<rect x="8" y="4.1" class="st0" width="68.5" height="68.5"/>
	<rect x="390" y="4.2" class="st1" width="68.5" height="68.5"/>
	<rect x="802" y="4.3" class="st2" width="68.5" height="68.5"/>
	<rect x="1244" y="4" class="st3" width="68.5" height="68.5"/>
	<rect x="1723" y="4.7" class="st4" width="68.5" height="68.5"/>
	<g class="st5">
		<path d="M126.7,54h-11.1l-4.5-17.6h-0.1L106.8,54H95.5l-6.3-26.9h9.7l3.3,17.2h0.1l4.3-17.2h9.9l4.2,17.2h0.1l3.3-17.2h9.2
			L126.7,54z"/>
		<path d="M157.7,54h-23.6V27.1h23.3v6.5h-13.2v3.8h12.6v6.5h-12.6v3.7h13.5V54z"/>
		<path d="M176.8,54h-15.9V27.1h16.9c2.9,0,5.2,0.6,6.8,1.7c1.6,1.1,2.4,2.8,2.4,4.9c0,3.4-1.8,5.6-5.5,6.6v0.1
			c1.7,0.2,3.2,1,4.3,2.2c1.1,1.2,1.7,2.5,1.7,4c0,1.2-0.2,2.3-0.6,3.2c-0.4,0.9-0.9,1.6-1.5,2.2c-0.6,0.5-1.4,1-2.3,1.3
			c-0.9,0.3-1.9,0.5-2.9,0.7C179.3,53.9,178.1,54,176.8,54z M170.6,37.4h2.6c2.5,0,3.8-0.9,3.8-2.6c0-1.7-1.2-2.6-3.5-2.6h-2.8V37.4
			z M170.6,48.4h2.7c1.2,0,2.1-0.2,2.8-0.7c0.7-0.5,1.1-1.2,1.1-2.1c0-1.8-1.3-2.7-3.8-2.7h-2.8V48.4z"/>
	</g>
	<g class="st5">
		<path d="M209,44.6V27.1h2.7v17.6c0,1.4-0.2,2.6-0.6,3.8s-0.9,2.1-1.5,2.8c-0.6,0.7-1.4,1.3-2.2,1.8c-0.8,0.5-1.7,0.9-2.6,1.1
			c-0.9,0.2-1.8,0.3-2.8,0.3c-1.2,0-2.4-0.2-3.4-0.5c-1.1-0.3-2.1-0.9-3.1-1.6c-1-0.7-1.8-1.7-2.3-3.1c-0.6-1.3-0.9-2.9-0.9-4.6
			V27.1h2.7v17.6c0,2.1,0.6,3.9,1.8,5.3c1.2,1.4,3,2.1,5.3,2.1c2.2,0,3.9-0.7,5.2-2C208.4,48.8,209,47,209,44.6z"/>
		<path d="M222.5,54h-4.7V27.1h6.7c4.3,0,7.6,1.1,9.9,3.4c2.3,2.3,3.5,5.6,3.5,10c0,4.3-1.3,7.6-3.9,10
			C231.5,52.8,227.6,54,222.5,54z M220.5,51.7h2.2c8.4,0,12.6-3.8,12.6-11.3c0-3.6-0.9-6.3-2.8-8.2c-1.9-1.8-4.6-2.8-8.1-2.8h-3.9
			V51.7z"/>
		<path d="M253.5,54h-2.8l-10-26.9h2.8l8.7,24.2l9-24.2h2.6L253.5,54z"/>
		<path d="M269.6,54h-2.7V27.1h2.7V54z"/>
		<path d="M295.5,54h-3.7l-13-13.4V54h-2.7V27.1h2.7v12.1l12.1-12.1h3.5l-13,12.7L295.5,54z"/>
		<path d="M312.6,54h-13.4V27.1h2.7v24.6h10.8V54z"/>
		<path d="M330.1,54h-13.6V27.1h13.2v2.3h-10.5V39h10v2.3h-10v10.4h11V54z"/>
		<path d="M352.7,54h-2.9l-3.7-8.5c-0.7-1.7-1.4-2.8-2.1-3.3s-1.6-0.8-2.9-0.8h-2.7V54h-2.7V27.1h6.9c2.5,0,4.5,0.6,5.8,1.7
			c1.4,1.1,2.1,2.9,2.1,5.2c0,1.7-0.6,3.1-1.7,4.2c-1.1,1.1-2.5,1.8-4.3,2v0.1c0.9,0.1,1.6,0.4,2.1,0.9c0.4,0.5,0.9,1.3,1.4,2.4
			L352.7,54z M338.5,39h2.9c1.1,0,2-0.1,3-0.4c0.9-0.3,1.8-0.8,2.5-1.6c0.8-0.8,1.1-1.8,1.1-3c0-1.7-0.5-2.9-1.5-3.6
			c-1-0.7-2.5-1-4.7-1h-3.4V39z"/>
	</g>
	<g class="st5">
		<path d="M484.5,50.9h-14.7V24h15.4c4.5,0,7.8,1.1,9.8,3.3c2.1,2.2,3.1,5.6,3.1,10.2C498.1,46.4,493.6,50.9,484.5,50.9z
			 M480.1,44.2h2.4c1.7,0,3-0.5,3.7-1.5c0.7-1,1.1-2.8,1.1-5.4c0-2.6-0.3-4.4-1-5.4s-1.9-1.6-3.7-1.6h-2.5V44.2z"/>
		<path d="M511.5,50.9h-10.3V24h10.3V50.9z"/>
		<path d="M541.5,37.2v12.6c-3.3,1-7,1.5-11.1,1.5c-4.8,0-8.7-1.3-11.7-3.8c-3-2.5-4.4-6-4.4-10.5c0-4.2,1.5-7.5,4.5-9.9
			c3-2.4,6.9-3.6,11.7-3.6c3.9,0,7.2,0.3,9.9,1v7.2c-1.8-1-4.1-1.5-7-1.5c-2.7,0-4.8,0.7-6.3,2s-2.3,3.1-2.3,5.5
			c0,2.1,0.5,3.8,1.4,5c0.9,1.3,2.4,1.9,4.3,1.9c1,0,1.7-0.1,2.2-0.2v-7.2H541.5z"/>
		<path d="M555.8,50.9h-10.3V24h10.3V50.9z"/>
		<path d="M577.5,50.9h-10.3V31.9h-9.1V24h28.5v7.9h-9.1V50.9z"/>
		<path d="M616.8,50.9H606l-1.8-5.8h-8.7l-1.7,5.8h-10.3L593,24h14.2L616.8,50.9z M602.9,38.6l-2.9-8.8h-0.1l-3,8.8H602.9z"/>
		<path d="M641.1,50.9h-23V24h10.3v18.9h12.7V50.9z"/>
	</g>
	<g class="st5">
		<path d="M675.5,50.9h-2.7V26.7h-0.1L663,50.9h-2.3l-10.1-24.2h-0.1v24.2h-2.7V24h4.1l9.8,23.6l9.9-23.6h3.8V50.9z"/>
		<path d="M695.8,50.9h-13.6V24h13.2v2.3h-10.5v9.6h10v2.3h-10v10.4h11V50.9z"/>
		<path d="M705.9,50.9h-4.7V24h6.7c4.3,0,7.6,1.1,9.9,3.4c2.3,2.3,3.5,5.6,3.5,10c0,4.3-1.3,7.6-3.9,10
			C714.8,49.7,711,50.9,705.9,50.9z M703.8,48.6h2.2c8.4,0,12.6-3.8,12.6-11.3c0-3.6-0.9-6.3-2.8-8.2c-1.9-1.8-4.6-2.8-8.1-2.8h-3.9
			V48.6z"/>
		<path d="M729.4,50.9h-2.7V24h2.7V50.9z"/>
		<path d="M757.5,50.9h-2.8l-2.9-7.2h-13.6l-2.9,7.2h-2.6l11-26.9h3L757.5,50.9z M751,41.4l-5.8-14.8l-5.9,14.8H751z"/>
	</g>
	<g class="st5">
		<path d="M920.9,49.2h-9.2V28.1h-0.2l-5.3,21.1h-8.6l-5.1-21.1h-0.3v21.1h-8.8V22.3h15.3l3.5,14.7h0.1l3.5-14.7h15.2V49.2z"/>
		<path d="M948,49.2h-23.6V22.3h23.3v6.5h-13.2v3.8h12.6v6.5h-12.6v3.7H948V49.2z"/>
		<path d="M965.9,49.2h-14.7V22.3h15.4c4.5,0,7.8,1.1,9.8,3.3c2.1,2.2,3.1,5.6,3.1,10.2C979.4,44.7,974.9,49.2,965.9,49.2z
			 M961.5,42.5h2.4c1.7,0,3-0.5,3.7-1.5c0.7-1,1.1-2.8,1.1-5.4c0-2.6-0.3-4.4-1-5.4s-1.9-1.6-3.7-1.6h-2.5V42.5z"/>
		<path d="M992.9,49.2h-10.3V22.3h10.3V49.2z"/>
		<path d="M1020,49.2h-23.6V22.3h23.3v6.5h-13.2v3.8h12.6v6.5h-12.6v3.7h13.5V49.2z"/>
	</g>
	<g class="st5">
		<path d="M1043.2,46.4V37h-6.2v-2.3h8.9V48c-2.5,1.1-5.3,1.7-8.3,1.7c-4.2,0-7.5-1.3-10-3.8c-2.4-2.5-3.6-5.9-3.6-10.1
			c0-4.1,1.2-7.5,3.7-10c2.5-2.6,5.7-3.9,9.9-3.9c3.2,0,5.6,0.4,7.2,1.3l-0.3,2.5c-1.7-0.9-4-1.4-6.9-1.4c-3.4,0-6.1,1.1-8,3.2
			c-1.9,2.2-2.9,4.9-2.9,8.4c0,3.4,0.9,6.2,2.8,8.4c1.9,2.1,4.6,3.2,8,3.2C1040.1,47.4,1042,47,1043.2,46.4z"/>
		<path d="M1069.5,49.2h-2.9l-3.7-8.5c-0.7-1.7-1.4-2.8-2.1-3.3s-1.6-0.8-2.9-0.8h-2.7v12.7h-2.7V22.3h6.9c2.5,0,4.5,0.6,5.8,1.7
			c1.4,1.1,2.1,2.9,2.1,5.2c0,1.7-0.6,3.1-1.7,4.2c-1.1,1.1-2.5,1.8-4.3,2v0.1c0.9,0.1,1.6,0.4,2.1,0.9c0.4,0.5,0.9,1.3,1.4,2.4
			L1069.5,49.2z M1055.3,34.2h2.9c1.1,0,2-0.1,3-0.4c0.9-0.3,1.8-0.8,2.5-1.6c0.8-0.8,1.1-1.8,1.1-3c0-1.7-0.5-2.9-1.5-3.6
			c-1-0.7-2.5-1-4.7-1h-3.4V34.2z"/>
		<path d="M1095.8,49.2h-2.8l-2.9-7.2h-13.6l-2.9,7.2h-2.6l11-26.9h3L1095.8,49.2z M1089.3,39.7l-5.8-14.8l-5.9,14.8H1089.3z"/>
		<path d="M1102,49.2h-2.7V22.3h12.8v2.3H1102v9.6h9.7v2.3h-9.7V49.2z"/>
		<path d="M1119.1,49.2h-2.7V22.3h2.7V49.2z"/>
		<path d="M1145,49.2h-3.7l-13-13.4v13.4h-2.7V22.3h2.7v12.1l12.1-12.1h3.5l-13,12.7L1145,49.2z"/>
		<path d="M1162.5,49.2h-13.6V22.3h13.2v2.3h-10.5v9.6h10v2.3h-10v10.4h11V49.2z"/>
		<path d="M1185.1,49.2h-2.9l-3.7-8.5c-0.7-1.7-1.4-2.8-2.1-3.3s-1.6-0.8-2.9-0.8h-2.7v12.7h-2.7V22.3h6.9c2.5,0,4.5,0.6,5.8,1.7
			c1.4,1.1,2.1,2.9,2.1,5.2c0,1.7-0.6,3.1-1.7,4.2c-1.1,1.1-2.5,1.8-4.3,2v0.1c0.9,0.1,1.6,0.4,2.1,0.9c0.4,0.5,0.9,1.3,1.4,2.4
			L1185.1,49.2z M1170.8,34.2h2.9c1.1,0,2-0.1,3-0.4c0.9-0.3,1.8-0.8,2.5-1.6c0.8-0.8,1.1-1.8,1.1-3c0-1.7-0.5-2.9-1.5-3.6
			c-1-0.7-2.5-1-4.7-1h-3.4V34.2z"/>
	</g>
	<g class="st5">
		<path d="M1351,37.7v12.6c-3.3,1-7,1.5-11.1,1.5c-4.8,0-8.7-1.3-11.7-3.8c-3-2.5-4.4-6-4.4-10.5c0-4.2,1.5-7.5,4.5-9.9
			c3-2.4,6.9-3.6,11.7-3.6c3.9,0,7.2,0.3,9.9,1v7.2c-1.8-1-4.1-1.5-7-1.5c-2.7,0-4.8,0.7-6.3,2s-2.3,3.1-2.3,5.5
			c0,2.1,0.5,3.8,1.4,5c0.9,1.3,2.4,1.9,4.3,1.9c1,0,1.7-0.1,2.2-0.2v-7.2H1351z"/>
		<path d="M1382.3,51.4h-10.7c-0.1-0.4-0.3-1.6-0.5-3.8c-0.3-2.2-0.7-3.7-1.1-4.3c-0.5-0.7-1.3-1-2.6-1h-2.4v9.1h-10.3V24.5h16.8
			c6.9,0,10.3,2.4,10.3,7.2c0,3.7-2.1,6.1-6.4,7.1v0.1c2.3,0.4,3.9,1.6,4.9,3.6c0.4,0.8,0.8,2.3,1.2,4.5S1382,50.6,1382.3,51.4z
			 M1364.5,36.2h3c1.4,0,2.4-0.2,3-0.7c0.6-0.5,0.9-1.2,0.9-2.3c0-1.8-1.3-2.7-3.9-2.7h-3V36.2z"/>
		<path d="M1415.6,51.4h-10.8l-1.8-5.8h-8.7l-1.7,5.8h-10.3l9.4-26.9h14.2L1415.6,51.4z M1401.7,39.1l-2.9-8.8h-0.1l-3,8.8H1401.7z"
			/>
		<path d="M1439.3,41.8H1427v9.6h-10.3V24.5h23v6.5H1427v4.4h12.3V41.8z"/>
		<path d="M1453,51.4h-10.3V24.5h10.3V51.4z"/>
		<path d="M1456.2,50.5v-7c2.8,1.2,5.9,1.8,9.2,1.8c3.1,0,4.7-0.6,4.7-1.8c0-0.7-0.7-1.3-2-1.7c-0.5-0.2-1.7-0.4-3.5-0.8
			c-2.8-0.6-4.9-1.5-6.4-2.7c-1.5-1.3-2.2-3.1-2.2-5.6c0-5.8,4.6-8.7,13.8-8.7c2.9,0,5.9,0.3,8.9,0.9v6.9c-2.6-0.9-5.2-1.3-8-1.3
			c-3,0-4.4,0.6-4.4,1.8c0,0.6,0.3,1,1,1.3c0.7,0.3,1.8,0.6,3.5,0.9c0.1,0,0.2,0,0.3,0.1c0.1,0,0.2,0,0.3,0.1
			c1.3,0.3,2.4,0.5,3.3,0.8c0.9,0.3,1.8,0.8,2.8,1.4c0.9,0.6,1.7,1.4,2.2,2.4c0.5,1,0.7,2.2,0.7,3.6c0,3-1.2,5.3-3.6,6.8
			c-2.4,1.5-5.6,2.2-9.6,2.2C1463.5,51.8,1459.8,51.4,1456.2,50.5z"/>
		<path d="M1512.4,51.4h-12.3l-6.7-11.4h-0.1v11.4H1483V24.5h10.3V35h0.1l6.4-10.6h11.7l-9,12.6L1512.4,51.4z"/>
	</g>
	<g class="st5">
		<path d="M1523.6,51.4h-2.7V26.8h-7.9v-2.3h18.5v2.3h-7.9V51.4z"/>
		<path d="M1548.8,51.4h-13.6V24.5h13.2v2.3h-10.5v9.6h10v2.3h-10V49h11V51.4z"/>
		<path d="M1574.1,51.4h-3.7l-13-13.4v13.4h-2.7V24.5h2.7v12.1l12.1-12.1h3.5l-13,12.7L1574.1,51.4z"/>
		<path d="M1597.4,51.4h-3.6l-13.4-23.2h-0.1v23.2h-2.7V24.5h3.4l13.7,23.6h0.1V24.5h2.7V51.4z"/>
		<path d="M1606,51.4h-2.7V24.5h2.7V51.4z"/>
		<path d="M1631.9,51.4h-3.7l-13-13.4v13.4h-2.7V24.5h2.7v12.1l12.1-12.1h3.5l-13,12.7L1631.9,51.4z"/>
		<path d="M1649.4,51.4h-13.6V24.5h13.2v2.3h-10.5v9.6h10v2.3h-10V49h11V51.4z"/>
		<path d="M1672,51.4h-2.9l-3.7-8.5c-0.7-1.7-1.4-2.8-2.1-3.3s-1.6-0.8-2.9-0.8h-2.7v12.7h-2.7V24.5h6.9c2.5,0,4.5,0.6,5.8,1.7
			c1.4,1.1,2.1,2.9,2.1,5.2c0,1.7-0.6,3.1-1.7,4.2c-1.1,1.1-2.5,1.8-4.3,2v0.1c0.9,0.1,1.6,0.4,2.1,0.9s0.9,1.3,1.4,2.4L1672,51.4z
			 M1657.7,36.4h2.9c1.1,0,2-0.1,3-0.4c0.9-0.3,1.8-0.8,2.5-1.6c0.8-0.8,1.1-1.8,1.1-3c0-1.7-0.5-2.9-1.5-3.6c-1-0.7-2.5-1-4.7-1
			h-3.4V36.4z"/>
	</g>
	<g class="st5">
		<path d="M1833.3,37.3V50c-3.3,1-7,1.5-11.1,1.5c-4.8,0-8.7-1.3-11.7-3.8c-3-2.5-4.4-6-4.4-10.5c0-4.2,1.5-7.5,4.5-9.9
			c3-2.4,6.9-3.6,11.7-3.6c3.9,0,7.2,0.3,9.9,1v7.2c-1.8-1-4.1-1.5-7-1.5c-2.7,0-4.8,0.7-6.3,2s-2.3,3.1-2.3,5.5
			c0,2.1,0.5,3.8,1.4,5c0.9,1.3,2.4,1.9,4.3,1.9c1,0,1.7-0.1,2.2-0.2v-7.2H1833.3z"/>
		<path d="M1859.5,41.4h-12.3V51h-10.3V24.1h23v6.5h-12.7v4.4h12.3V41.4z"/>
	</g>
	<g class="st5">
		<path d="M1874.2,51h-2.7V27.1l-4.4,3.8l-1.5-1.7l6.1-5.1h2.4V51z"/>
	</g>
</g>
</svg>
