<?xml version="1.0" encoding="utf-8"?>
<!-- Generator: Adobe Illustrator 22.1.0, SVG Export Plug-In . SVG Version: 6.00 Build 0)  -->
<svg version="1.1" id="Layer_1" xmlns="http://www.w3.org/2000/svg" xmlns:xlink="http://www.w3.org/1999/xlink" x="0px" y="0px"
	 viewBox="0 0 1892.4 78.2" style="enable-background:new 0 0 1892.4 78.2;" xml:space="preserve">
<style type="text/css">
	.st0{fill:#D83A46;}
	.st1{fill:#84B12A;}
	.st2{fill:#9916B1;}
	.st3{fill:#009BB9;}
	.st4{fill:#585968;}
	.st5{font-family:'FrutigerLTStd-UltraBlack';}
	.st6{font-size:38.5109px;}
	.st7{font-family:'FrutigerLTStd-Light';}
</style>
<g id="OVERSIGT">
	<rect x="8" y="4.1" class="st0" width="68.5" height="68.5"/>
	<rect x="390" y="4.2" class="st1" width="68.5" height="68.5"/>
	<rect x="802" y="4.3" class="st2" width="68.5" height="68.5"/>
	<rect x="1244" y="4" class="st3" width="68.5" height="68.5"/>
	<rect x="1723" y="4.7" class="st4" width="68.5" height="68.5"/>
	<text transform="matrix(1 0 0 1 89.7963 53.9683)" class="st5 st6">WEB</text>
	<text transform="matrix(1 0 0 1 189.0687 53.9683)" class="st7 st6">UDVIKLER</text>
	<text transform="matrix(1 0 0 1 467.8744 50.8794)" class="st5 st6">DIGITAL</text>
	<text transform="matrix(1 0 0 1 644.597 50.8794)" class="st7 st6">MEDIA</text>
	<text transform="matrix(1 0 0 1 881.5092 49.2065)" class="st5 st6">MEDIE</text>
	<text transform="matrix(1 0 0 1 1021.432 49.2065)" class="st7 st6">GRAFIKER</text>
	<text transform="matrix(1 0 0 1 1323.0687 51.356)" class="st5 st6">GRAFISK</text>
	<text transform="matrix(1 0 0 1 1512.6273 51.356)" class="st7 st6">TEKNIKER</text>
	<text transform="matrix(1 0 0 1 1805.3422 50.9512)" class="st5 st6">GF</text>
	<text transform="matrix(1 0 0 1 1860.9681 50.9512)" class="st7 st6">1</text>
</g>
</svg>
