<?xml version="1.0" encoding="utf-8"?>
<!-- Generator: Adobe Illustrator 22.1.0, SVG Export Plug-In . SVG Version: 6.00 Build 0)  -->
<svg version="1.1" id="Layer_1" xmlns="http://www.w3.org/2000/svg" xmlns:xlink="http://www.w3.org/1999/xlink" x="0px" y="0px"
	 viewBox="0 0 1418.7 472.3" style="enable-background:new 0 0 1418.7 472.3;" xml:space="preserve">
<style type="text/css">
	.st0{fill:none;stroke:#000000;stroke-miterlimit:10;}
	.st1{fill:none;stroke:#A09F9F;stroke-miterlimit:10;}
	.st2{fill:none;stroke:#A09F9F;stroke-width:2;stroke-miterlimit:10;}
	.st3{fill:none;stroke:#000000;stroke-width:2;stroke-miterlimit:10;}
	.st4{fill:#FFFFFF;stroke:#000000;stroke-width:2;stroke-miterlimit:10;}
	.st5{fill:#FFC015;}
	.st6{fill:#FFFFFF;}
	.st7{font-family:'FrutigerLTStd-UltraBlack';}
	.st8{font-size:22.8492px;}
	.st9{font-family:'FrutigerLTStd-Light';}
	.st10{font-size:15.2328px;}
	.st11{fill:#585968;}
	.st12{fill:#009BB9;}
</style>
<g id="stuen_x5F_kort">
	<polyline class="st0" points="169.1,56.3 169.1,77.9 164.3,77.9 	"/>
	<polyline class="st0" points="159.3,48.4 159.3,77.9 154.1,77.9 	"/>
	<polyline class="st0" points="149,47.5 149,78.1 144.7,78.1 	"/>
	<polyline class="st0" points="139.2,47.5 138.9,77.9 134.3,77.9 	"/>
	<polyline class="st0" points="128.7,47.6 128.7,78.1 124,78.1 	"/>
	<polyline class="st0" points="118.3,47.5 118.3,78.1 114.3,78.1 	"/>
	<polyline class="st0" points="108.8,47.5 108.8,78.1 104.7,78.1 	"/>
	<polyline class="st0" points="98.5,47.5 98.5,77.9 93.7,78.1 	"/>
	<g>
		<line class="st1" x1="446.6" y1="275.6" x2="446.6" y2="218.2"/>
		<rect x="397.6" y="217.7" class="st2" width="135.1" height="58.6"/>
		<rect x="706.1" y="47.4" class="st3" width="695.6" height="417.3"/>
		<rect x="533.5" y="47.5" class="st4" width="172.6" height="219.3"/>
		<polygon class="st4" points="532.4,47.9 532.7,218.5 396.1,218 396.4,232.7 315.6,234 315.6,210.9 187.4,209.6 187.4,47.9 		"/>
		<rect x="276.9" y="331.4" class="st3" width="429.3" height="133.5"/>
		<rect x="20" y="48" class="st3" width="166.6" height="282.3"/>
		<path class="st0" d="M186.9,47.9v59.4h-29c-2,0-3.8-1.8-3.8-3.8V47.9H186.9z"/>
		<path class="st0" d="M186.9,47.9v69.3h-38.3c-2,0-3.8-1.8-3.8-3.8V47.9L186.9,47.9L186.9,47.9z"/>
		<path class="st0" d="M186.9,47.6v79.5h-49.3c-1.8,0-3.3-1.6-3.3-3.3V47.6H186.9z"/>
		<path class="st0" d="M186.4,47.6v89.6h-58.6c-2,0-3.8-1.8-3.8-3.8V47.6H186.4z"/>
		<path class="st0" d="M186.7,48.5v99.2h-68.3c-2.2,0-4.1-1.8-4.1-4V48.5H186.7z"/>
		<path class="st0" d="M186.4,47.9v109.7h-77.9c-2,0-3.8-1.8-3.8-3.8V47.9H186.4z"/>
		<path class="st0" d="M186.7,47.6V168H97.5c-2,0-3.8-1.8-3.8-3.8V47.6H186.7z"/>
		<line class="st0" x1="164.3" y1="47.9" x2="164.3" y2="107.3"/>
		<rect x="1310.8" y="47.5" class="st3" width="90.4" height="221.8"/>
		<line class="st0" x1="1310.8" y1="162.6" x2="1402" y2="162.6"/>
		<line class="st3" x1="1308.3" y1="332.5" x2="1400.7" y2="332.5"/>
		<line class="st3" x1="1054.1" y1="184.9" x2="1054.1" y2="267.3"/>
		<rect x="966.4" y="48.6" class="st3" width="87.6" height="136.5"/>
		<rect x="705.9" y="332.5" class="st3" width="254.9" height="131.5"/>
		<line class="st3" x1="698.7" y1="267" x2="791.2" y2="267"/>
		<g>
			<circle class="st5" cx="102.3" cy="215.5" r="63.5"/>
			<text transform="matrix(1 0 0 1 67.8203 208.3511)" class="st6 st7 st8">N</text>
			<text transform="matrix(1 0 0 1 87.3691 208.3511)" class="st6 st9 st8">111a</text>
			<text transform="matrix(1 0 0 1 52.5879 235.7695)" class="st6 st7 st10">PYRA</text>
			<text transform="matrix(1 0 0 1 100.8237 235.7695)" class="st6 st9 st10">MIDEN</text>
			<text transform="matrix(1 0 0 1 145.7607 235.7695)" class="st6 st9 st8"> </text>
		</g>
		<g>
			<circle class="st11" cx="359.5" cy="142.6" r="45.7"/>
			<text transform="matrix(1 0 0 1 330.8291 149.1484)" class="st6 st7 st8">N</text>
			<text transform="matrix(1 0 0 1 350.376 149.1484)" class="st6 st9 st8">112</text>
		</g>
		<g>
			<path class="st12" d="M665,156.3c0,25.2-20.6,45.7-45.7,45.7c-25.2,0-45.7-20.6-45.7-45.7c0-25.2,20.6-45.7,45.7-45.7
				C644.4,110.6,665,131.2,665,156.3z"/>
			<text transform="matrix(1 0 0 1 584.1011 162.9653)" class="st6 st7 st8">N</text>
			<text transform="matrix(1 0 0 1 603.6504 162.9653)" class="st6 st9 st8">112b</text>
		</g>
		<g>
			<circle class="st11" cx="569.3" cy="400.3" r="45.7"/>
			<text transform="matrix(1 0 0 1 540.4253 406.9512)" class="st6 st7 st8">N</text>
			<text transform="matrix(1 0 0 1 559.9756 406.9512)" class="st6 st9 st8">121</text>
		</g>
		<g>
			<circle class="st11" cx="368.2" cy="399.5" r="45.7"/>
			<text transform="matrix(1 0 0 1 339.4404 406.0576)" class="st6 st7 st8">N</text>
			<text transform="matrix(1 0 0 1 358.9902 406.0576)" class="st6 st9 st8">122</text>
		</g>
		<g>
			<path class="st12" d="M881,153c0,25.7-20.8,46.2-46.2,46.2c-25.5,0-46.2-20.8-46.2-46.2s20.8-46.2,46.2-46.2
				C860.2,106.7,881,127.6,881,153z"/>
			<text transform="matrix(1 0 0 1 805.9668 159.6958)" class="st6 st7 st8">N</text>
			<text transform="matrix(1 0 0 1 825.5156 159.6958)" class="st6 st9 st8">113</text>
		</g>
		<g>
			<path class="st12" d="M879.7,399.5c0,25.2-20.6,45.7-45.7,45.7s-45.7-20.6-45.7-45.7s20.6-45.7,45.7-45.7
				S879.7,374.2,879.7,399.5z"/>
			<text transform="matrix(1 0 0 1 805.1777 406.0576)" class="st6 st7 st8">N</text>
			<text transform="matrix(1 0 0 1 824.7285 406.0576)" class="st6 st9 st8">120</text>
		</g>
		<g>
			<path class="st12" d="M1092.8,404.4c0,25.2-20.6,45.7-45.7,45.7c-25.2,0-45.7-20.6-45.7-45.7c0-25.2,20.6-45.7,45.7-45.7
				C1072.3,358.6,1092.8,378.9,1092.8,404.4z"/>
			<text transform="matrix(1 0 0 1 1018.2871 410.8975)" class="st6 st7 st8">N</text>
			<text transform="matrix(1 0 0 1 1037.8379 410.8975)" class="st6 st9 st8">119</text>
		</g>
		<g>
			<path class="st12" d="M1214.6,397c0,20.8-16.8,37.5-37.5,37.5s-37.5-16.8-37.5-37.5c0-20.8,16.8-37.5,37.5-37.5
				S1214.6,376.2,1214.6,397z"/>
			<text transform="matrix(1 0 0 1 1148.2783 403.543)" class="st6 st7 st8">N</text>
			<text transform="matrix(1 0 0 1 1167.8271 403.543)" class="st6 st9 st8">118</text>
		</g>
		<g>
			<path class="st12" d="M1237.5,149.2c0,25.2-20.6,45.7-45.7,45.7c-25.2,0-45.7-20.6-45.7-45.7s20.6-45.7,45.7-45.7
				C1217.1,103.5,1237.4,123.8,1237.5,149.2z"/>
			<text transform="matrix(1 0 0 1 1162.9707 155.7754)" class="st6 st7 st8">N</text>
			<text transform="matrix(1 0 0 1 1182.5215 155.7754)" class="st6 st9 st8">114</text>
		</g>
		<g>
			<path class="st12" d="M1393.6,215.5c0,21.6-17.6,39.1-39.1,39.1s-39.1-17.6-39.1-39.1s17.6-39.1,39.1-39.1
				C1376.1,176.4,1393.6,193.9,1393.6,215.5z"/>
			<text transform="matrix(1 0 0 1 1325.6797 222.0596)" class="st6 st7 st8">N</text>
			<text transform="matrix(1 0 0 1 1345.2266 222.0596)" class="st6 st9 st8">115</text>
		</g>
		<g>
			<path class="st12" d="M1361.1,400.3c0,25.2-20.6,45.7-45.7,45.7c-25.2,0-45.7-20.6-45.7-45.7c0-25.2,20.6-45.7,45.7-45.7
				C1340.6,354.5,1361.1,375.1,1361.1,400.3z"/>
			<text transform="matrix(1 0 0 1 1283.3115 406.9502)" class="st6 st7 st8">N</text>
			<text transform="matrix(1 0 0 1 1302.8594 406.9502)" class="st6 st9 st8">117 </text>
		</g>
		<rect x="1133.2" y="332" class="st3" width="89.6" height="132.1"/>
	</g>
	<text transform="matrix(1 0 0 1 23.5166 24.2871)" class="st7 st8">N-GANGEN </text>
	<text transform="matrix(1 0 0 1 168.9897 24.2871)" class="st9 st8">STUEN</text>
</g>
</svg>
