<?xml version="1.0" encoding="utf-8"?>
<!-- Generator: Adobe Illustrator 22.1.0, SVG Export Plug-In . SVG Version: 6.00 Build 0)  -->
<svg version="1.1" id="KOMPLET-KORT" xmlns="http://www.w3.org/2000/svg" xmlns:xlink="http://www.w3.org/1999/xlink" x="0px"
	 y="0px" viewBox="0 0 842 1191" style="enable-background:new 0 0 842 1191;" xml:space="preserve">
<style type="text/css">
	.st0{fill:none;stroke:#A09F9F;stroke-miterlimit:10;}
	.st1{fill:none;stroke:#A09F9F;stroke-width:2;stroke-miterlimit:10;}
	.st2{fill:none;stroke:#000000;stroke-width:2;stroke-miterlimit:10;}
	.st3{fill:#FFFFFF;stroke:#000000;stroke-width:2;stroke-miterlimit:10;}
	.st4{fill:none;stroke:#000000;stroke-miterlimit:10;}
	.st5{fill:#FFC015;}
	.st6{fill:#FFFFFF;}
	.st7{font-family:'ArialMT';}
	.st8{font-size:9px;}
	.st9{font-size:6px;}
	.st10{fill:#585968;}
	.st11{fill:#009BB9;}
	.st12{fill:none;stroke:#4DD6E8;stroke-miterlimit:10;}
	.st13{fill:#878787;}
	.st14{font-size:4px;}
	.st15{font-size:3px;}
	.st16{fill:#9916B1;}
	.st17{font-size:5px;}
	.st18{fill:#84B12A;}
	.st19{fill:#D83A46;}
</style>
<g id="STUEN_1_">
	<g id="STUEN-KORT">
		<line class="st0" x1="481.4" y1="470.1" x2="481.4" y2="492.7"/>
		<rect x="447.5" y="469.9" class="st1" width="53.2" height="23.1"/>
		<rect x="105.2" y="402.8" class="st2" width="274" height="164.4"/>
		<rect x="379.2" y="402.9" class="st3" width="68" height="86.4"/>
		<polygon class="st3" points="583.5,403 583.5,466.7 533,467.2 533,476.3 501.2,475.8 501.3,470 447.5,470.2 447.6,403 		"/>
		<rect x="379.2" y="514.7" class="st2" width="169.1" height="52.6"/>
		<rect x="583.8" y="403.1" class="st2" width="65.6" height="111.2"/>
		<path class="st4" d="M596.6,403v21.9c0,0.8-0.7,1.5-1.5,1.5h-11.4V403H596.6z"/>
		<path class="st4" d="M600.3,403v25.8c0,0.8-0.7,1.5-1.5,1.5h-15.1V403H600.3z"/>
		<path class="st4" d="M604.4,402.9v30c0,0.7-0.6,1.3-1.3,1.3h-19.4v-31.3H604.4z"/>
		<path class="st4" d="M608.5,402.9v33.8c0,0.8-0.7,1.5-1.5,1.5h-23.1v-35.3H608.5z"/>
		<path class="st4" d="M612.3,402.6v38.1c0,0.9-0.7,1.6-1.6,1.6h-26.9v-39.7H612.3z"/>
		<path class="st4" d="M616.1,403v41.7c0,0.8-0.7,1.5-1.5,1.5h-30.7V403H616.1z"/>
		<path class="st4" d="M620.4,402.9v45.9c0,0.8-0.7,1.5-1.5,1.5h-35.1v-47.4H620.4z"/>
		<line class="st4" x1="592.6" y1="426.4" x2="592.6" y2="403"/>
		<polyline class="st4" points="592.6,414.8 590.7,414.8 590.7,406.3 		"/>
		<polyline class="st4" points="596.6,414.8 594.6,414.8 594.6,403.2 		"/>
		<polyline class="st4" points="600.3,414.9 598.6,414.9 598.6,402.6 		"/>
		<polyline class="st4" points="604.4,414.8 602.6,414.8 602.5,402.6 		"/>
		<polyline class="st4" points="608.5,414.9 606.6,414.9 606.6,402.9 		"/>
		<polyline class="st4" points="612.3,414.9 610.7,414.9 610.7,402.3 		"/>
		<polyline class="st4" points="616.1,414.9 614.5,414.9 614.5,402.6 		"/>
		<polyline class="st4" points="620.4,414.9 618.5,414.8 618.5,402.3 		"/>
		<rect x="105.4" y="403.3" class="st2" width="35.6" height="86.9"/>
		<line class="st4" x1="105.1" y1="448.2" x2="141" y2="448.2"/>
		<line class="st2" x1="105.6" y1="515.1" x2="142" y2="515.1"/>
		<line class="st2" x1="242.1" y1="489.4" x2="242.1" y2="457"/>
		<rect x="242.2" y="403.3" class="st2" width="34.5" height="53.8"/>
		<rect x="278.8" y="515.1" class="st2" width="100.4" height="51.8"/>
		<line class="st2" x1="345.7" y1="489.3" x2="382.1" y2="489.3"/>
		<g>
			<circle class="st5" cx="617" cy="469" r="25"/>
			<text transform="matrix(1 0 0 1 603.3956 466.2033)" class="st6 st7 st8">N</text>
			<text transform="matrix(1 0 0 1 611.0956 466.2033)" class="st6 st7 st8">111a</text>
			<text transform="matrix(1 0 0 1 597.3956 477.0033)" class="st6 st7 st9">PYRA</text>
			<text transform="matrix(1 0 0 1 616.3956 477.0033)" class="st6 st7 st9">MIDEN</text>
			<text transform="matrix(1 0 0 1 634.0956 477.0033)" class="st6 st7 st8"> </text>
		</g>
		<g>
			<circle class="st10" cx="515.7" cy="440.3" r="18"/>
			<text transform="matrix(1 0 0 1 504.3912 442.8842)" class="st6 st7 st8">N</text>
			<text transform="matrix(1 0 0 1 512.0912 442.8842)" class="st6 st7 st8">112</text>
		</g>
		<g>
			<path class="st11" d="M431.4,445.7c0,9.9-8.1,18-18,18s-18-8.1-18-18s8.1-18,18-18S431.4,435.8,431.4,445.7z"/>
			<text transform="matrix(1 0 0 1 399.5518 448.3265)" class="st6 st7 st8">N</text>
			<text transform="matrix(1 0 0 1 407.2518 448.3265)" class="st6 st7 st8">112b</text>
		</g>
		<g>
			<circle class="st10" cx="433.1" cy="541.8" r="18"/>
			<text transform="matrix(1 0 0 1 421.7495 544.4297)" class="st6 st7 st8">N</text>
			<text transform="matrix(1 0 0 1 429.4495 544.4297)" class="st6 st7 st8">121</text>
		</g>
		<g>
			<circle class="st10" cx="512.3" cy="541.5" r="18"/>
			<text transform="matrix(1 0 0 1 500.9839 544.0771)" class="st6 st7 st8">N</text>
			<text transform="matrix(1 0 0 1 508.6839 544.0771)" class="st6 st7 st8">122</text>
		</g>
		<g>
			<path class="st11" d="M346.7,444.4c0,10.1-8.2,18.2-18.2,18.2s-18.2-8.2-18.2-18.2s8.2-18.2,18.2-18.2S346.7,434.4,346.7,444.4z"
				/>
			<text transform="matrix(1 0 0 1 317.1417 447.0387)" class="st6 st7 st8">N</text>
			<text transform="matrix(1 0 0 1 324.8417 447.0387)" class="st6 st7 st8">113</text>
		</g>
		<g>
			<path class="st11" d="M346.8,541.5c0,9.9-8.1,18-18,18s-18-8.1-18-18s8.1-18,18-18S346.8,531.5,346.8,541.5z"/>
			<text transform="matrix(1 0 0 1 317.4318 544.0771)" class="st6 st7 st8">N</text>
			<text transform="matrix(1 0 0 1 325.1318 544.0771)" class="st6 st7 st8">120</text>
		</g>
		<g>
			<path class="st11" d="M262.9,543.4c0,9.9-8.1,18-18,18s-18-8.1-18-18s8.1-18,18-18C254.8,525.4,262.9,533.4,262.9,543.4z"/>
			<text transform="matrix(1 0 0 1 233.5392 545.9841)" class="st6 st7 st8">N</text>
			<text transform="matrix(1 0 0 1 241.2392 545.9841)" class="st6 st7 st8">119</text>
		</g>
		<g>
			<path class="st11" d="M208.5,540.5c0,8.2-6.6,14.8-14.8,14.8s-14.8-6.6-14.8-14.8s6.6-14.8,14.8-14.8S208.5,532.3,208.5,540.5z"
				/>
			<text transform="matrix(1 0 0 1 182.374 543.0868)" class="st6 st7 st8">N</text>
			<text transform="matrix(1 0 0 1 190.074 543.0868)" class="st6 st7 st8">118</text>
		</g>
		<g>
			<path class="st11" d="M205.9,442.9c0,9.9-8.1,18-18,18s-18-8.1-18-18s8.1-18,18-18C197.9,424.9,205.9,432.9,205.9,442.9z"/>
			<text transform="matrix(1 0 0 1 176.5874 445.4944)" class="st6 st7 st8">N</text>
			<text transform="matrix(1 0 0 1 184.2874 445.4944)" class="st6 st7 st8">114</text>
		</g>
		<g>
			<path class="st11" d="M139.2,469c0,8.5-6.9,15.4-15.4,15.4s-15.4-6.9-15.4-15.4s6.9-15.4,15.4-15.4S139.2,460.5,139.2,469z"/>
			<text transform="matrix(1 0 0 1 112.4498 471.6032)" class="st6 st7 st8">N</text>
			<text transform="matrix(1 0 0 1 120.1498 471.6032)" class="st6 st7 st8">115</text>
		</g>
		<g>
			<path class="st11" d="M157.2,541.8c0,9.9-8.1,18-18,18s-18-8.1-18-18s8.1-18,18-18S157.2,531.9,157.2,541.8z"/>
			<text transform="matrix(1 0 0 1 126.5622 544.4293)" class="st6 st7 st8">N</text>
			<text transform="matrix(1 0 0 1 134.2622 544.4293)" class="st6 st7 st8">117 </text>
		</g>
		<rect x="175.7" y="514.9" class="st2" width="35.3" height="52"/>
	</g>
	<text transform="matrix(1 0 0 1 106.4854 393.7026)" class="st7 st8">N-GANGEN </text>
	<text transform="matrix(1 0 0 1 163.7854 393.7026)" class="st7 st8">STUEN</text>
</g>
<g id="FØRSTESAL">
	<g id="FØRSTESAL-KORT">
		<rect x="156.2" y="266.5" class="st1" width="34.7" height="28.1"/>
		<line class="st0" x1="173.6" y1="266.2" x2="173.7" y2="294.7"/>
		<rect x="496.4" y="266.5" class="st1" width="51.5" height="28"/>
		<line class="st0" x1="513.8" y1="267" x2="513.9" y2="294.7"/>
		<rect x="106" y="315" class="st2" width="135.4" height="49.8"/>
		<rect x="583.2" y="203.6" class="st2" width="66.7" height="109.3"/>
		<rect x="512.4" y="203.1" class="st2" width="52.1" height="63.3"/>
		<rect x="395.7" y="203.1" class="st2" width="117.2" height="63.3"/>
		<rect x="344.2" y="203.2" class="st2" width="51.2" height="84"/>
		<rect x="291.7" y="203.1" class="st2" width="52.3" height="83.8"/>
		<rect x="241.3" y="315" class="st2" width="85" height="49.8"/>
		<rect x="242.3" y="203.2" class="st2" width="49.4" height="63.3"/>
		<rect x="206.7" y="203.1" class="st2" width="35.7" height="63.4"/>
		<rect x="156.4" y="203.1" class="st2" width="50.3" height="63.4"/>
		<rect x="105.7" y="203.2" class="st2" width="50.7" height="83.3"/>
		<line class="st4" x1="583.2" y1="240.5" x2="591.4" y2="240.5"/>
		<line class="st4" x1="583.2" y1="238.5" x2="591.6" y2="238.5"/>
		<line class="st4" x1="582.9" y1="236.5" x2="591.6" y2="236.5"/>
		<line class="st4" x1="582.8" y1="234.5" x2="591.7" y2="234.5"/>
		<line class="st4" x1="583.2" y1="232.6" x2="591.6" y2="232.6"/>
		<line class="st4" x1="582.9" y1="230.6" x2="591.7" y2="230.6"/>
		<line class="st4" x1="583.2" y1="228.6" x2="591.3" y2="228.6"/>
		<line class="st4" x1="583.2" y1="226.6" x2="591.3" y2="226.6"/>
		<line class="st4" x1="582.9" y1="224.6" x2="591.3" y2="224.6"/>
		<line class="st4" x1="589.4" y1="203.5" x2="589.4" y2="213.8"/>
		<rect x="591.6" y="214.2" class="st12" width="22.7" height="27.7"/>
		<rect x="589.8" y="212.3" class="st12" width="26.7" height="31.4"/>
		<rect x="326.3" y="314.9" class="st2" width="34" height="49.8"/>
		<rect x="360.3" y="335.6" class="st2" width="34.1" height="29.1"/>
		<rect x="394.4" y="335.6" class="st2" width="26.6" height="29.1"/>
		<rect x="421.5" y="335.6" class="st2" width="24.1" height="29.1"/>
		<rect x="445.9" y="315.3" class="st2" width="35.3" height="49.3"/>
		<rect x="481.1" y="315.3" class="st2" width="65.2" height="49.3"/>
		<rect x="583.2" y="313" class="st2" width="66.7" height="51.6"/>
		<g>
			<path class="st13" d="M239.7,234.2c0,8.1-6.5,14.6-14.6,14.6s-14.6-6.5-14.6-14.6s6.5-14.6,14.6-14.6
				C233.2,219.6,239.7,226.1,239.7,234.2z"/>
			<text transform="matrix(1 0 0 1 213.792 236.7937)" class="st6 st7 st8">N</text>
			<text transform="matrix(1 0 0 1 221.492 236.7937)" class="st6 st7 st8">223</text>
			<text transform="matrix(1 0 0 1 215.992 241.5937)" class="st6 st7 st14">TECH</text>
			<text transform="matrix(1 0 0 1 227.592 241.5937)" class="st6 st7 st14">LAB</text>
		</g>
		<g>
			<circle class="st5" cx="618.5" cy="274.4" r="25"/>
			<text transform="matrix(1 0 0 1 607.1973 271.5702)" class="st6 st7 st8">N</text>
			<text transform="matrix(1 0 0 1 614.8973 271.5702)" class="st6 st7 st8">209</text>
			<text transform="matrix(1 0 0 1 600.1973 278.7702)" class="st6 st7 st9">PYRA</text>
			<text transform="matrix(1 0 0 1 619.1973 278.7702)" class="st6 st7 st9">MIDEN</text>
		</g>
		<g>
			<path class="st13" d="M556.4,234.5c0,9.9-8.1,18-18,18s-18-8.1-18-18s8.1-18,18-18C548.4,216.5,556.4,224.6,556.4,234.5z"/>
			<text transform="matrix(1 0 0 1 527.0941 237.1519)" class="st6 st7 st8">N</text>
			<text transform="matrix(1 0 0 1 534.7941 237.1519)" class="st6 st7 st8">214</text>
			<text transform="matrix(1 0 0 1 524.1941 240.7519)" class="st6 st7 st15">EFTER</text>
			<text transform="matrix(1 0 0 1 534.8941 240.7519)" class="st6 st7 st15">UDDANNELSE</text>
		</g>
		<g>
			<path class="st16" d="M497.5,235.3c0,9.9-8.1,18-18,18s-18-8.1-18-18s8.1-18,18-18S497.5,225.4,497.5,235.3z"/>
			<text transform="matrix(1 0 0 1 465.8642 237.9016)" class="st6 st7 st8">N</text>
			<text transform="matrix(1 0 0 1 473.5642 237.9016)" class="st6 st7 st8">215a</text>
		</g>
		<g>
			<path class="st16" d="M439.5,234.8c0,9.9-8.1,18-18,18s-18-8.1-18-18s8.1-18,18-18S439.5,224.9,439.5,234.8z"/>
			<text transform="matrix(1 0 0 1 410.1365 237.4217)" class="st6 st7 st8">N</text>
			<text transform="matrix(1 0 0 1 417.8365 237.4217)" class="st6 st7 st8">215</text>
		</g>
		<g>
			<path class="st16" d="M387.8,246.9c0,9.9-8.1,18-18,18s-18-8.1-18-18s8.1-18,18-18C379.7,228.9,387.8,237,387.8,246.9z"/>
			<text transform="matrix(1 0 0 1 358.4375 249.5403)" class="st6 st7 st8">N</text>
			<text transform="matrix(1 0 0 1 366.1375 249.5403)" class="st6 st7 st8">218</text>
		</g>
		<g>
			<path class="st13" d="M336,248.8c0,9.9-8.1,18-18,18s-18-8.1-18-18s8.1-18,18-18C327.9,230.8,336,238.8,336,248.8z"/>
			<text transform="matrix(1 0 0 1 306.6236 251.371)" class="st6 st7 st8">N</text>
			<text transform="matrix(1 0 0 1 314.3236 251.371)" class="st6 st7 st8">219</text>
			<text transform="matrix(1 0 0 1 306.2236 256.171)" class="st6 st7 st14">DESIGN</text>
			<text transform="matrix(1 0 0 1 323.0236 256.171)" class="st6 st7 st14">LAB</text>
		</g>
		<g>
			<path class="st13" d="M284.7,233.4c0,9.9-8.1,18-18,18s-18-8.1-18-18s8.1-18,18-18S284.7,223.4,284.7,233.4z"/>
			<text transform="matrix(1 0 0 1 255.3126 235.9656)" class="st6 st7 st8">N</text>
			<text transform="matrix(1 0 0 1 263.0126 235.9656)" class="st6 st7 st8">221</text>
			<text transform="matrix(1 0 0 1 252.5126 241.9656)" class="st6 st7 st17">PHOTO</text>
			<text transform="matrix(1 0 0 1 272.5126 241.9656)" class="st6 st7 st17">LAB</text>
		</g>
		<g>
			<path class="st18" d="M200,233.4c0,9.9-8.1,18-18,18s-18-8.1-18-18s8.1-18,18-18S200,223.4,200,233.4z"/>
			<text transform="matrix(1 0 0 1 170.6448 235.9656)" class="st6 st7 st8">N</text>
			<text transform="matrix(1 0 0 1 178.3448 235.9656)" class="st6 st7 st8">225</text>
		</g>
		<g>
			<path class="st19" d="M147.9,248.8c0,9.9-8.1,18-18,18s-18-8.1-18-18s8.1-18,18-18S147.9,238.8,147.9,248.8z"/>
			<text transform="matrix(1 0 0 1 118.563 251.371)" class="st6 st7 st8">N</text>
			<text transform="matrix(1 0 0 1 126.263 251.371)" class="st6 st7 st8">226</text>
		</g>
		<g>
			<path class="st19" d="M187.5,341c0,9.9-8.1,18-18,18s-18-8.1-18-18s8.1-18,18-18S187.5,331,187.5,341z"/>
			<text transform="matrix(1 0 0 1 158.1154 343.5712)" class="st6 st7 st8">N</text>
			<text transform="matrix(1 0 0 1 165.8154 343.5712)" class="st6 st7 st8">228</text>
		</g>
		<g>
			<path class="st13" d="M302.7,339.7c0,9.9-8.1,18-18,18s-18-8.1-18-18s8.1-18,18-18S302.7,329.8,302.7,339.7z"/>
			<text transform="matrix(1 0 0 1 273.3125 342.3317)" class="st6 st7 st8">N</text>
			<text transform="matrix(1 0 0 1 281.0125 342.3317)" class="st6 st7 st8">230</text>
			<text transform="matrix(1 0 0 1 269.6125 347.1317)" class="st6 st7 st14">UNDER</text>
			<text transform="matrix(1 0 0 1 285.3125 347.1317)" class="st6 st7 st14">VISNING</text>
		</g>
		<line class="st4" x1="446.5" y1="203.1" x2="446.5" y2="267.5"/>
		<polyline class="st4" points="504.6,315.3 504.6,342.6 514,342.7 513.8,364.1 		"/>
	</g>
	<text transform="matrix(1 0 0 1 105.9905 193.2767)" class="st7 st8">N-GANGEN </text>
	<text transform="matrix(1 0 0 1 163.2905 193.2767)" class="st7 st8">FØRSTESAL</text>
</g>
<g id="OVERSIGT">
	<text transform="matrix(1 0 0 1 682.4216 214.7612)" class="st7 st8">WEB</text>
	<text transform="matrix(1 0 0 1 705.6216 214.7612)" class="st7 st8">UDVIKLER</text>
	<rect x="663.3" y="203.1" class="st19" width="16" height="16"/>
	<text transform="matrix(1 0 0 1 681.5049 235.3062)" class="st7 st8">DIGITAL</text>
	<text transform="matrix(1 0 0 1 722.8049 235.3062)" class="st7 st8">MEDIA</text>
	<rect x="663.3" y="224.4" class="st18" width="16" height="16"/>
	<text transform="matrix(1 0 0 1 681.8871 258.2854)" class="st7 st8">MEDIE</text>
	<text transform="matrix(1 0 0 1 714.5871 258.2854)" class="st7 st8">GRAFIKER</text>
	<rect x="663.3" y="247.8" class="st16" width="16" height="16"/>
	<text transform="matrix(1 0 0 1 681.7842 282.1578)" class="st7 st8">GRAFISK</text>
	<text transform="matrix(1 0 0 1 726.0842 282.1578)" class="st7 st8">TEKNIKER</text>
	<rect x="663.3" y="271.1" class="st11" width="16" height="16"/>
	<text transform="matrix(1 0 0 1 682.549 304.498)" class="st7 st8">GF</text>
	<text transform="matrix(1 0 0 1 695.549 304.498)" class="st7 st8">1</text>
	<rect x="663.3" y="293.7" class="st10" width="16" height="16"/>
</g>
</svg>
